<?xml version="1.0" encoding="UTF-8"?>
<svg width="24px" height="23px" viewBox="0 0 24 23" version="1.1" xmlns="http://www.w3.org/2000/svg" xmlns:xlink="http://www.w3.org/1999/xlink">
    <!-- Generator: Sketch 42 (36781) - http://www.bohemiancoding.com/sketch -->
    <title>icon_控制</title>
    <desc>Created with Sketch.</desc>
    <defs></defs>
    <g id="Page-1" stroke="none" stroke-width="1" fill="none" fill-rule="evenodd">
        <g id="故障_详情" transform="translate(-224.000000, -627.000000)">
            <g id="Bottom-Bar/Tab-Bar" transform="translate(0.000000, 618.000000)">
                <g id="3.控制" transform="translate(224.000000, 9.000000)">
                    <g id="icon_控制">
                        <path d="M18.3495384,20.1989958 C18.2587731,19.4477444 18.074338,18.7708729 18.1151461,18.1077376 C18.2626942,15.7119457 19.8845615,13.9583927 22.2443145,13.5729032 C22.522129,13.5276031 22.6002598,13.4146451 22.6377277,13.1714857 C22.8080761,12.0679163 22.8089474,10.9671234 22.6412131,9.86282333 C22.6005502,9.5949681 22.5047021,9.4752881 22.2193359,9.44021704 C20.1199704,9.18229861 18.3772763,7.37058603 18.1303947,5.25273231 C18.0349822,4.43411529 18.181078,3.66021387 18.4419012,2.8731608 C17.5208874,2.35820071 16.6155578,1.85186226 15.7246055,1.35356093 C15.3047614,1.68688215 14.9190451,2.02020336 14.5067527,2.31582318 C12.8571476,3.49801021 11.2191603,3.50984669 9.56084167,2.34738714 C9.17498016,2.07690157 8.82934583,1.74898715 8.45452137,1.46140445 C8.37755238,1.40251429 8.22434053,1.35209964 8.15463277,1.38936264 C7.24930318,1.87334329 6.3528323,2.37398269 5.49673382,2.8468575 C5.59940755,3.42903712 5.75683092,3.961825 5.77759802,4.49987353 C5.87330097,6.98933437 4.0945912,9.08979869 1.61865857,9.44825416 C1.39138221,9.48113328 1.29916465,9.5651577 1.26038971,9.80349479 C1.08902479,10.8579647 1.07943997,11.9103888 1.22117909,12.967489 C1.29379134,13.5099215 1.28885371,13.510506 1.83373606,13.6011062 C1.86960652,13.6070975 1.90605787,13.6082666 1.94192832,13.614404 C4.32099621,14.0250277 6.12686296,16.5597886 5.73853263,18.9560189 C5.67332682,19.3588977 5.56455367,19.7544701 5.47335268,20.1655321 C6.3001158,20.6322695 7.1190368,21.1011988 7.94797829,21.5514236 C8.02756132,21.5945318 8.19776444,21.5584378 8.2774927,21.4963328 C8.63082393,21.221025 8.95278666,20.9040702 9.3109103,20.6359227 C11.0177339,19.3580209 12.7114874,19.3542216 14.425427,20.6259859 C14.7942973,20.8998325 15.123376,21.2274546 15.4868729,21.5096306 C15.5751694,21.5781653 15.758588,21.624196 15.8444157,21.5783114 C16.7085015,21.118296 17.5612598,20.6367995 18.3495384,20.1989958 M8.28910345,22.8700517 C8.02165517,22.7791439 7.736,22.7229337 7.49034483,22.5910827 C6.64993103,22.1400136 5.82317241,21.6629907 4.99186207,21.1945727 C4.10924138,20.6972863 3.86593103,20.0249852 4.22137931,19.0714944 C4.83613793,17.4226632 3.96910345,15.6652979 2.3022069,15.1999333 C2.072,15.1356733 1.82634483,15.09015 1.58937931,15.0958405 C0.711862069,15.1169366 0.375586207,14.5073687 0.256275862,13.947349 C-0.0899310345,12.3210019 -0.0797241379,10.6900747 0.252965517,9.06109062 C0.398344828,8.34992809 0.803034483,7.99642868 1.53034483,7.93952457 C3.14758621,7.81322521 4.23462069,6.84835364 4.40593103,5.2926509 C4.4542069,4.85365654 4.34565517,4.37080438 4.20482759,3.94277447 C3.88882759,2.98165024 4.11324138,2.31490067 5.00262069,1.82274955 C5.85765517,1.34989031 6.712,0.875781949 7.56758621,0.403755451 C8.36193103,-0.0345449561 9.08372414,0.0760710744 9.73958621,0.695493087 C10.0478621,0.986814351 10.3896552,1.24538106 10.7335172,1.49451001 C11.5809655,2.10851919 12.4422069,2.09339103 13.2873103,1.49062388 C13.6331034,1.24413194 13.9717241,0.981956684 14.2834483,0.693966391 C14.9022069,0.122010731 15.6426207,0.0083413092 16.3714483,0.413887157 C17.2252414,0.888967047 18.0769655,1.36765549 18.9293793,1.84551119 C19.7663448,2.31462309 20.0172414,3.01287811 19.6769655,3.92292743 C19.0344828,5.64157022 19.9350345,7.40060105 21.6936552,7.84722889 C21.9143448,7.90330025 22.1466207,7.92037148 22.3748966,7.93883062 C23.0590345,7.99420803 23.4612414,8.31051158 23.6092414,8.98031455 C23.9815172,10.663427 23.9817931,12.3518134 23.6096552,14.0352034 C23.4557241,14.7319318 23.0322759,15.0578119 22.3102069,15.0891785 C20.233931,15.1793923 18.9468966,17.1355057 19.6762759,19.0924518 C20.0206897,20.0163801 19.7655172,20.7074181 18.9016552,21.1879108 C18.0477241,21.6628519 17.1936552,22.1375154 16.3388966,22.6109298 C15.570069,23.0368778 14.8562759,22.8918418 14.2028966,22.2932383 C13.7241379,21.8546603 13.181931,21.4759011 12.6306207,21.1310067 C12.164,20.8391302 11.6198621,20.8320519 11.1506207,21.1244835 C10.5891034,21.4745132 10.0497931,21.8700661 9.54331034,22.2967081 C9.17282759,22.6089867 8.79117241,22.8160622 8.28910345,22.8700517" id="Fill-1" fill="#979797"></path>
                        <path d="M11.9153841,15.4099098 C14.1245231,15.4099098 15.9153841,13.6190488 15.9153841,11.4099098 C15.9153841,9.20077081 14.1245231,7.40990981 11.9153841,7.40990981 C9.70624509,7.40990981 7.91538409,9.20077081 7.91538409,11.4099098 C7.91538409,12.2563043 8.17826646,13.0412993 8.6268364,13.6877001" id="Oval-2" stroke="#979797" stroke-width="1.2" stroke-linecap="round"></path>
                    </g>
                </g>
            </g>
        </g>
    </g>
</svg>