<?xml version="1.0" encoding="utf-8"?>
<!-- Generator: Adobe Illustrator 19.0.0, SVG Export Plug-In . SVG Version: 6.00 Build 0)  -->
<svg version="1.1" id="图层_1" xmlns="http://www.w3.org/2000/svg" xmlns:xlink="http://www.w3.org/1999/xlink" x="0px" y="0px"
	 viewBox="0 0 16 16" style="enable-background:new 0 0 16 16;" xml:space="preserve">
<style type="text/css">
	.st0{fill:#FFFFFF;}
</style>
<image style="overflow:visible;" width="750" height="1334" xlink:href="Shepherd APP 视觉更新2016.10 /登录、注册/登录.png"  transform="matrix(0.2466 0 0 0.2466 41.515 -149)">
</image>
<g>
	<path class="st0" d="M14.1,15.5H1.9c-0.7,0-1.2-0.5-1.2-1.2V7.5c0-0.7,0.5-1.2,1.2-1.2h12.2c0.7,0,1.2,0.5,1.2,1.2v6.7
		C15.3,14.9,14.7,15.5,14.1,15.5z M1.9,7.3c-0.1,0-0.2,0.1-0.2,0.2v6.7c0,0.1,0.1,0.2,0.2,0.2h12.2c0.1,0,0.2-0.1,0.2-0.2V7.5
		c0-0.1-0.1-0.2-0.2-0.2H1.9z"/>
</g>
<g>
	<path class="st0" d="M11.3,5.8c-0.3,0-0.5-0.2-0.5-0.5V3.9c0-1.5-1.2-2.7-2.8-2.7S5.2,2.4,5.2,3.9v1.4c0,0.3-0.2,0.5-0.5,0.5
		S4.2,5.6,4.2,5.3V3.9c0-2,1.7-3.7,3.8-3.7c2.1,0,3.8,1.6,3.8,3.7v1.4C11.8,5.6,11.5,5.8,11.3,5.8z"/>
</g>
<g>
	<path class="st0" d="M8,12.1c-0.3,0-0.5-0.2-0.5-0.5V9.4c0-0.3,0.2-0.5,0.5-0.5s0.5,0.2,0.5,0.5v2.1C8.5,11.9,8.3,12.1,8,12.1z"/>
</g>
</svg>
