<?xml version="1.0" encoding="utf-8"?>
<!-- Generator: Adobe Illustrator 19.0.0, SVG Export Plug-In . SVG Version: 6.00 Build 0)  -->
<svg version="1.1" id="图层_1" xmlns="http://www.w3.org/2000/svg" xmlns:xlink="http://www.w3.org/1999/xlink" x="0px" y="0px"
	 viewBox="15 0 84 54" style="enable-background:new 15 0 84 54;" xml:space="preserve">
<style type="text/css">
	.st0{fill:#F5F5F5;}
	.st1{fill:#E6E6E6;}
	.st2{display:none;}
	.st3{display:inline;fill:#0C84D9;}
	.st4{display:inline;}
	.st5{fill:#0C84D9;}
	.st6{fill:#999999;}
	.st7{display:inline;clip-path:url(#SVGID_2_);}
	.st8{clip-path:url(#SVGID_5_);}
	.st9{fill:none;}
	.st10{display:inline;clip-path:url(#SVGID_7_);}
	.st11{clip-path:url(#SVGID_9_);fill:#FFFFFF;}
	.st12{fill:#FDFDFD;}
	.st13{fill:#290F82;}
	.st14{fill:#F5F2F7;}
	.st15{display:inline;clip-path:url(#SVGID_7_);fill:#FFFFFF;}
	.st16{display:inline;clip-path:url(#SVGID_7_);fill:#290F82;}
	.st17{fill:#FFFFFF;}
	.st18{clip-path:url(#SVGID_11_);fill:none;stroke:#979797;stroke-linecap:round;stroke-miterlimit:10;}
	.st19{clip-path:url(#SVGID_13_);fill:none;stroke:#979797;stroke-linecap:round;stroke-miterlimit:10;}
	.st20{fill:#C4C4C4;}
</style>
<g>
	<rect x="15.2" y="0.2" class="st0" width="83.6" height="53.6"/>
	<path class="st1" d="M99.1,54.1H15V0h84.1V54.1z M15.5,53.6h83.1V0.5H15.5V53.6z"/>
</g>
<g id="图层_2" class="st2">
</g>
<g id="图层_1_1_" class="st2">
	<path class="st3" d="M269.6,264.9l-21.3-21.3c-1.9-1.9-5.2-1.9-7.1,0l-21.3,21.3c-0.4,0.4-0.4,1,0,1.4s1,0.4,1.4,0l3.6-3.6v19.8
		c0,2.6,2.1,4.7,4.6,4.7h9.4v-14c0-1.6,0.9-2.9,2.1-2.9h7.8c1.2,0,2.1,1.3,2.1,2.9v14h9.4c2.6,0,4.6-2.1,4.6-4.7v-19.4l3.1,3.1
		c0.2,0.2,0.5,0.3,0.7,0.3c0.3,0,0.5-0.1,0.7-0.3C270,265.9,270,265.3,269.6,264.9z"/>
</g>
<g id="_x32__监视" class="st2">
	<g class="st4">
		<path class="st5" d="M262.1,246.1h-34.7c-2.9,0-5.3,2.4-5.3,5.3v21.2c0,2.9,2.4,5.3,5.3,5.3h0.1l10.8-14.5l5.5,4.5l7.8-7.8
			c-0.7-0.8-1.1-1.8-1.1-2.9c0-2.4,1.9-4.3,4.2-4.3c2.3,0,4.2,1.9,4.2,4.3c0,2.4-1.9,4.3-4.2,4.3c-0.5,0-1-0.1-1.5-0.3l-9.3,9.4
			l-5.3-4.3l-8.7,11.7h12.9v5.8H234c-0.5,0-1,0.4-1,1c0,0.5,0.4,1,1,1h19.5c0.5,0,1-0.4,1-1c0-0.5-0.4-1-1-1h-8.7V278h16.7h0.5
			c2.9,0,5.3-2.4,5.3-5.3v-21.2C267.4,248.5,265,246.1,262.1,246.1z"/>
		<ellipse class="st5" cx="254.7" cy="257.2" rx="2.3" ry="2.3"/>
	</g>
</g>
<g id="_x33_" class="st2">
	<g class="st4">
		<g>
			<path class="st6" d="M246.7,287.2h-4.1c-1.6,0-2.9-1.3-2.9-2.9v-2.8c-1.2-0.3-2.3-0.8-3.4-1.4l-2.3,2.3c-1.1,1.1-2.9,1.1-4,0
				l-3.4-3.4c-1.1-1.1-1.1-2.9,0-4l2.3-2.3c-0.6-1.1-1-2.2-1.3-3.3h-2.8c-1.6,0-2.9-1.3-2.9-2.9v-4.1c0-1.6,1.3-2.9,2.9-2.9h2.8
				c0.4-1.3,0.9-2.6,1.6-3.7l-1.9-1.9c-1.1-1.1-1.1-2.9,0-4l2.6-2.6c1.1-1.1,2.9-1.1,4,0l1.8,1.8c1.3-0.8,2.7-1.3,4.2-1.7V245
				c0-1.6,1.3-2.8,2.8-2.8h3.6c1.6,0,2.8,1.3,2.8,2.8v2.5c1.3,0.4,2.6,0.9,3.7,1.5l2.2-2.2c1.1-1.1,2.9-1.1,4,0l3.1,3.1
				c0.5,0.5,0.8,1.2,0.8,2s-0.3,1.5-0.8,2l-2.2,2.2c0.6,1.1,1.1,2.4,1.5,3.6h2.8c1.6,0,2.9,1.3,2.9,2.9v4c0,1.6-1.3,2.9-2.9,2.9
				h-2.9c-0.4,1.3-0.9,2.5-1.6,3.7l1.9,1.9c1.1,1.1,1.1,2.9,0,4l-2.8,2.8c-0.5,0.5-1.3,0.8-2,0.8l0,0c-0.8,0-1.5-0.3-2-0.8l-1.9-1.9
				c-1.2,0.7-2.4,1.2-3.7,1.5v2.8C249.6,285.9,248.3,287.2,246.7,287.2z M236.3,278c0.2,0,0.3,0,0.5,0.1c1.3,0.8,2.7,1.4,4.2,1.7
				c0.4,0.1,0.7,0.5,0.7,0.9v3.6c0,0.5,0.4,1,1,1h4.1c0.5,0,1-0.4,1-1v-3.6c0-0.4,0.3-0.8,0.7-0.9c1.6-0.4,3.1-1,4.6-1.9
				c0.4-0.2,0.9-0.2,1.2,0.1l2.4,2.4c0.2,0.2,0.4,0.3,0.7,0.3l0,0c0.3,0,0.5-0.1,0.7-0.3l2.8-2.8c0.4-0.4,0.4-1,0-1.4l-2.4-2.4
				c-0.3-0.3-0.4-0.8-0.1-1.2c0.9-1.4,1.5-2.9,1.9-4.6c0.1-0.4,0.5-0.7,0.9-0.7h3.6c0.5,0,0.9-0.4,0.9-0.9v-4c0-0.5-0.4-0.9-0.9-0.9
				H261c-0.4,0-0.8-0.3-0.9-0.7c-0.4-1.6-1-3.1-1.8-4.4c-0.2-0.4-0.2-0.9,0.1-1.2l2.7-2.7c0.2-0.2,0.3-0.4,0.3-0.7s-0.1-0.5-0.3-0.7
				L258,248c-0.4-0.4-1-0.4-1.3,0l-2.7,2.7c-0.3,0.3-0.8,0.4-1.2,0.1c-1.4-0.8-3-1.5-4.6-1.8c-0.4-0.1-0.7-0.5-0.7-0.9V245
				c0-0.5-0.4-0.9-0.9-0.9H243c-0.5,0-0.9,0.4-0.9,0.9v3.3c0,0.4-0.3,0.8-0.7,0.9c-1.8,0.4-3.4,1.1-5,2.1c-0.4,0.2-0.9,0.2-1.2-0.1
				l-2.4-2.4c-0.4-0.4-1-0.4-1.3,0l-2.6,2.6c-0.4,0.4-0.4,1,0,1.3l2.4,2.4c0.3,0.3,0.4,0.8,0.1,1.2c-0.9,1.4-1.5,3-1.9,4.6
				c-0.1,0.4-0.5,0.7-0.9,0.7H225c-0.5,0-1,0.4-1,1v4.1c0,0.5,0.4,1,1,1h3.6c0.4,0,0.8,0.3,0.9,0.7c0.3,1.5,0.9,2.9,1.7,4.2
				c0.2,0.4,0.2,0.8-0.2,1.1l-2.8,2.8c-0.4,0.4-0.4,1,0,1.3l3.4,3.4c0.4,0.4,1,0.4,1.3,0l2.8-2.8C235.8,278.1,236,278,236.3,278z"/>
		</g>
		<g>
			<path class="st6" d="M245.3,273.9c-0.5,0-1-0.4-1-1s0.4-1,1-1c3.7,0,6.7-3,6.7-6.7s-3-6.7-6.7-6.7s-6.7,3-6.7,6.7
				c0,0.5-0.4,1-1,1s-1-0.4-1-1c0-4.7,3.8-8.6,8.6-8.6c4.7,0,8.6,3.8,8.6,8.6C253.8,270.1,250,273.9,245.3,273.9z"/>
		</g>
	</g>
</g>
<g id="_x33__x5F_pressed" class="st2">
	<path class="st3" d="M264.6,259.7h-2.8c-0.4-1.3-0.8-2.5-1.5-3.6l2.2-2.2c0.5-0.5,0.8-1.3,0.8-2c0-0.8-0.3-1.5-0.8-2l-3.1-3.1
		c-1.1-1.1-2.9-1.1-4,0l-2.2,2.2c-1.2-0.6-2.4-1.1-3.7-1.5V245c0-1.6-1.3-2.8-2.8-2.8H243c-1.6,0-2.8,1.3-2.8,2.8v2.5
		c-1.5,0.4-2.9,1-4.2,1.7l-1.8-1.8c-1.1-1.1-2.9-1.1-4,0l-2.6,2.6c-1.1,1.1-1.1,2.9,0,4l1.9,1.9c-0.7,1.2-1.2,2.4-1.6,3.7h-2.8
		c-1.6,0-2.9,1.3-2.9,2.9v4.1c0,1.6,1.3,2.9,2.9,2.9h2.8c0.3,1.1,0.8,2.2,1.3,3.3l-2.3,2.3c-1.1,1.1-1.1,2.9,0,4l3.4,3.4
		c1.1,1.1,2.9,1.1,4,0l2.3-2.3c1.1,0.6,2.2,1,3.4,1.4v2.8c0,1.6,1.3,2.9,2.9,2.9h4.1c1.6,0,2.9-1.3,2.9-2.9v-2.8
		c1.3-0.4,2.5-0.9,3.7-1.5l1.9,1.9c0.5,0.5,1.3,0.8,2,0.8l0,0c0.8,0,1.5-0.3,2-0.8l2.8-2.8c1.1-1.1,1.1-2.9,0-4l-1.9-1.9
		c0.7-1.2,1.2-2.4,1.6-3.7h2.9c1.6,0,2.9-1.3,2.9-2.9v-4C267.4,261,266.1,259.7,264.6,259.7z M245.3,273.9c-0.5,0-1-0.4-1-1
		s0.4-1,1-1c3.7,0,6.7-3,6.7-6.7s-3-6.7-6.7-6.7s-6.7,3-6.7,6.7c0,0.5-0.4,1-1,1s-1-0.4-1-1c0-4.7,3.8-8.6,8.6-8.6s8.6,3.8,8.6,8.6
		S250,273.9,245.3,273.9z"/>
</g>
<g id="图层_6" class="st2">
	<defs>
		<path id="SVGID_1_" d="M250.2,297c0-1,0.8-1.8,1.7-1.8c1,0,1.7,0.8,1.7,1.8v14.1c0,1-0.8,1.8-1.7,1.8c-1,0-1.7-0.8-1.7-1.8V297z"
			/>
	</defs>
	<clipPath id="SVGID_2_" class="st4">
		<use xlink:href="#SVGID_1_"  style="overflow:visible;"/>
	</clipPath>
	<g class="st7">
		<g>
			<rect id="SVGID_3_" x="-420.3" y="-944.4" class="st6" width="734.4" height="1306.2"/>
		</g>
		<g>
			<defs>
				<rect id="SVGID_4_" x="-420.3" y="-944.4" width="734.4" height="1306.2"/>
			</defs>
			<clipPath id="SVGID_5_">
				<use xlink:href="#SVGID_4_"  style="overflow:visible;"/>
			</clipPath>
			<g class="st8">
				<path class="st6" d="M250.2,297c0-1,0.8-1.8,1.7-1.8c1,0,1.7,0.8,1.7,1.8v14.1c0,1-0.8,1.8-1.7,1.8c-1,0-1.7-0.8-1.7-1.8V297z"
					/>
			</g>
		</g>
	</g>
	<g class="st7">
		<path class="st9" d="M250.2,297c0-1,0.8-1.8,1.7-1.8c1,0,1.7,0.8,1.7,1.8v14.1c0,1-0.8,1.8-1.7,1.8c-1,0-1.7-0.8-1.7-1.8V297z"/>
	</g>
	<g class="st7">
		<path class="st6" d="M253.8,316.8c0,1.1-0.9,2-2,1.9c-1.1,0-1.9-0.9-1.9-2c0-1,0.9-1.9,1.9-1.9
			C252.9,314.8,253.8,315.7,253.8,316.8"/>
	</g>
</g>
<g id="图层_6_x5F_复制" class="st2">
	<path class="st3" d="M273.3,317.8c-5.9-10.5-11.8-21-17.7-31.5c-0.8-1.4-2-2.2-3.6-2.2s-2.8,0.8-3.6,2.2c-0.7,1.3-1.5,2.6-2.2,3.9
		c-5.2,9.2-10.3,18.4-15.5,27.6c-0.5,0.9-0.9,1.8-0.7,2.8c0.3,2.3,1.9,3.7,4.3,3.7c5.9,0,11.8,0,17.7,0s11.7,0,17.6,0
		c0.9,0,1.8-0.1,2.6-0.7C274.1,322.4,274.5,320.1,273.3,317.8z M250.2,297c0-1,0.8-1.8,1.7-1.8c1,0,1.7,0.8,1.7,1.8v14.1
		c0,1-0.8,1.8-1.7,1.8c-1,0-1.7-0.8-1.7-1.8V297z M251.8,318.7c-1.1,0-1.9-0.9-1.9-2c0-1,0.9-1.9,1.9-1.9c1.1,0,1.9,0.9,1.9,2
		C253.8,317.8,252.9,318.7,251.8,318.7z"/>
</g>
<g id="图层_8" class="st2">
	<defs>
		<path id="SVGID_6_" d="M224.6,255.6c0-0.1-0.1-0.1-0.1-0.1c-0.7-0.8-1.1-1.7-1.1-2.7c0-1.3,0-2.6,0-3.9c0.1-1.8,1.6-3.4,3.3-3.7
			c2.2-0.3,4.2,0.9,4.7,3.1c0.1,0.3,0.1,0.6,0.1,0.9c0,1.2,0,2.5,0,3.7c0,0.9-0.4,1.7-0.9,2.4c0,0-0.1,0.1-0.1,0.2
			c0.3,0.1,0.5,0.1,0.8,0.2c1.3,0.4,2.6,0.9,3.6,1.8c0.3,0.3,0.6,0.6,0.8,0.9c0.4,0.5,0.5,1.1,0.5,1.8c0,0.4-0.3,0.7-0.7,0.8
			c-0.7,0.2-1.3,0.5-2,0.7c-1.9,0.4-3.8,0.6-5.7,0.6c-2,0-4.1-0.1-6.1-0.6c-0.6-0.1-1.2-0.4-1.7-0.6c-0.6-0.3-0.8-0.6-0.8-1.3
			c0-0.9,0.5-1.5,1.1-2.1c1-0.9,2.1-1.4,3.3-1.8C224,255.7,224.3,255.7,224.6,255.6 M227.8,261.1c1.8,0,3.5-0.1,5.3-0.5
			c0.7-0.1,1.3-0.4,2-0.6c0.1,0,0.2-0.1,0.2-0.2c0-0.4-0.1-0.8-0.4-1.1c-0.2-0.2-0.4-0.4-0.6-0.6c-1.3-1-2.9-1.5-4.5-1.8
			c-0.2,0-0.3,0-0.5,0.1c-1.1,0.4-2.1,0.4-3.2,0c-0.1,0-0.3-0.1-0.4,0c-1.1,0.2-2.2,0.6-3.2,1.1c-0.6,0.3-1.2,0.7-1.6,1.2
			c-0.2,0.3-0.4,0.6-0.4,1c0,0.2,0.1,0.3,0.2,0.3c0.5,0.2,1,0.4,1.5,0.5C224,261,225.9,261.1,227.8,261.1 M230.6,251L230.6,251
			c0-0.5,0.1-1,0-1.5c0-0.4-0.1-0.9-0.3-1.3c-0.6-1.7-2.7-2.4-4.3-1.5c-1,0.6-1.5,1.6-1.5,2.7c0,1.1,0,2.2,0,3.3
			c0,0.4,0.1,0.8,0.2,1.2c0.5,1.5,2.2,2.3,3.7,1.8c1.2-0.4,1.9-1.3,2-2.5C230.6,252.4,230.6,251.7,230.6,251"/>
	</defs>
	<clipPath id="SVGID_7_" class="st4">
		<use xlink:href="#SVGID_6_"  style="overflow:visible;"/>
	</clipPath>
	<g class="st10">
		<g>
			<defs>
				<rect id="SVGID_8_" x="-118.7" y="212.1" width="375" height="667"/>
			</defs>
			<clipPath id="SVGID_9_">
				<use xlink:href="#SVGID_8_"  style="overflow:visible;"/>
			</clipPath>
			<rect x="214.3" y="240.1" class="st11" width="27" height="27"/>
		</g>
	</g>
	<g id="eExg8O_1_" class="st10">
		<g>
			<g>
				<path class="st12" d="M64.3,309.6c-35.5,0-71,0-106.5,0.1c-3,0-3.6-0.6-3.6-3.6c0.1-34.3,0.1-68.7,0-103c0-3,0.6-3.6,3.6-3.6
					c71,0.1,142,0.1,213,0c3,0,3.6,0.6,3.6,3.6c-0.1,34.3-0.1,68.7,0,103c0,3-0.6,3.6-3.6,3.6C135.3,309.6,99.8,309.6,64.3,309.6z
					 M65.1,306c21.2,0,42.3-0.1,63.5,0.1c4.1,0,4.9-1.2,4.9-5.1c-0.1-31-0.1-62,0-92.9c0-3.9-1.1-5-5-5c-42.3,0.1-84.6,0.1-126.9,0
					c-3.4,0-4.5,0.7-4.4,4.3c0.1,31.3,0.2,62.6,0,93.9c0,4.2,1.5,4.7,5.1,4.7C23.1,306,44.1,306,65.1,306z"/>
				<path class="st13" d="M65.1,306c-21,0-42-0.1-63,0.1c-3.6,0-5.1-0.5-5.1-4.7c0.2-31.3,0.2-62.6,0-93.9c0-3.6,1-4.3,4.4-4.3
					c42.3,0.1,84.6,0.1,126.9,0c4,0,5,1.1,5,5c-0.2,31-0.1,62,0,92.9c0,3.8-0.8,5.1-4.9,5.1C107.4,305.9,86.3,306,65.1,306z
					 M89.3,283.7c-0.9-0.1-2.1-0.6-1.7,1.2c0.9,4.2,0.4,8.5,0.3,12.7c0,0.8-1.1,1.9,0.7,2c1.3,0.1,1.6-0.6,1.6-1.8
					c-0.1-4.4-0.2-8.9-0.3-13.3C90.2,284,90,283.7,89.3,283.7z M19.2,286.6c-2,2.1-3.6,4.6-6.6,5.9c-0.4-2.5-0.7-4.6,0.1-6.7
					c0.2-0.5,1.9-0.3,0.9-1.6c-0.6-0.8-1.4-0.9-2.2-0.7c-1.1,0.2-1,1.1-1,2c0,4.2,0,8.3,0,12.5c0,2.8,1.9,1.5,3.6,1.7
					c-1.9-1.9-2.7-3.9-0.5-5.4c3.1-2.1,4.1,1.3,5.4,2.8c2.1,2.5,1.8,2.7,4.8,2.2C19.4,295.9,16.4,292.2,19.2,286.6
					c0.7-0.3,1.4-0.5,2.1-0.9c0.9-0.4,1.9-0.7,1.9-1.9c0-0.7-0.6-1.3-1.3-1.1c-1,0.3-2,0.9-3,1.4C19.3,284.9,20.2,285.6,19.2,286.6z
					 M64.8,281.9c20.2,0,40.3-0.1,60.5,0.1c3.5,0,4.4-1,4.4-4.4c-0.2-21.8-0.2-43.7,0-65.5c0-3.6-1.1-4.4-4.5-4.4
					c-40.2,0.1-80.3,0.1-120.5,0c-3.2,0-4.2,0.7-4.2,4.1c0.2,21.8,0.2,43.7,0,65.5c0,3.9,1.2,4.7,4.8,4.7
					C25.2,281.8,45,281.9,64.8,281.9z M73.4,288.2c-0.6-2-0.6-3-1.1-3.8c-0.6-1-11.6-1.3-12.3-0.4c-0.4,0.6-0.4,1.6-0.2,2.3
					c0.4,1.3,1.1,0.5,1.8,0c3-2.2,4-1,3.9,2.3c-0.1,3.1,0.2,6.3-0.2,9.4c-0.2,1.6,0.5,1.6,1.5,1.6c1.6,0,0.9-0.6,0.8-1.7
					c-0.4-2.9-0.3-5.9-0.3-8.9c0-1.4-0.9-3.4,0.9-3.9C69.9,284.8,71.8,285.3,73.4,288.2z M46.2,300.3c-2.2-2.6-1.6-5.1-1.8-7.5
					c-0.4-3.9-2.9-5.6-6-3.3c-2.1,1.6-5.3-2.1-5.1,0.7c0.1,1.6,0.7,3.9,1,6c0.1,0.5-0.1,1,0,1.5c0.1,0.7-2.3,2.1,0.5,2.1
					c1.2,0,2.8,0.6,2.3-1.9c-0.3-1.6-0.2-3.4,0.1-5.1c0.2-1.3,1-2.5,2.7-2.3c1.5,0.1,2.5,0.7,2.5,2.4c0,1.2,0.4,2.5-0.1,3.5
					C40.6,299.9,42.9,300,46.2,300.3z M93,284c2.6,4.2,0.8,8.9,1.3,13.4c0.1,0.8-1.9,2.2,0.6,2.3c1.7,0.1,2.2-0.4,2.1-2.2
					c-0.2-3.5-0.3-7-0.1-10.5C97.3,283.6,96,282.9,93,284z M120.2,290c-0.1-0.9-0.3-1.6-1.1-1.5c-3.2,0.7-7.6,0.4-5.7,6
					c0.3,1,0,2.3-0.1,3.4c-0.1,0.8-2.6,1.3-0.4,2.3c0.8,0.4,2.1,0.4,2.8,0c1.9-1-0.5-1.6-0.4-2.5c0.3-2.9-1.8-7.1,3.8-7.2
					C119.5,290.5,119.9,290.1,120.2,290z M79.5,291.8c1.3,0.1,3.3,2.1,3.6-0.7c0.2-1.5-1.6-2.7-3.5-2.8c-1.9-0.1-3.7,0.9-3.7,2.4
					C75.9,293.9,78.2,291.6,79.5,291.8z M29.2,295.3c0-0.9,0.1-1.6,0-2.3c-0.3-1.4,0.9-4.1-1.3-3.7c-3,0.5,0.7,2.3,0,3.6
					c-0.3,0.5-0.3,1.6,0,1.9c1.7,1.4-3.1,4.7,1,4.6C31,299.4,28,296.5,29.2,295.3z M57.8,303.2c0.2-4.8-0.2-5-9.7-5.6
					c1.2,0.4-0.3,3.9,3.3,2.1C53.6,298.6,56.3,299.9,57.8,303.2z M100.9,296.5c0.6-1.3,0.9-2.4-0.2-3.7
					C100.3,294,99.9,295.1,100.9,296.5z"/>
				<path class="st14" d="M64.8,281.9c-19.8,0-39.7-0.1-59.5,0.1c-3.7,0-4.9-0.8-4.8-4.7c0.2-21.8,0.2-43.7,0-65.5
					c0-3.4,1-4.1,4.2-4.1c40.2,0.1,80.3,0.1,120.5,0c3.4,0,4.6,0.7,4.5,4.4c-0.2,21.8-0.2,43.7,0,65.5c0,3.5-0.8,4.5-4.4,4.4
					C105.2,281.8,85,281.9,64.8,281.9z M110.8,246.6c-1.8,2.1-1.3,4.4-1,6.6c0.4,2.6,1,5-2.5,6c-0.9,0.2-1.5,1.1-1.3,1.9
					c0.3,1.1,1.5,1.6,2.4,1.2c4.5-1.6,6.1,2,8.2,4.5c1.6,1.9,3.1,3.9,5.2,5.3c2,1.3,4.4,2.5,6.1-0.1c1.5-2.4,0.2-4.6-2.1-5.8
					c-2.4-1.3-4.5-2.8-6.3-4.8c-1.6-1.6-2.1-2.5-0.1-4.7c2.1-2.3,5-3.7,6.6-6.3c1.3-2.1,2.1-4.6-0.7-6c-2.4-1.2-4.3,0.5-4.9,2.8
					c-0.6,2.4-2.2,3.6-4,4.8c-0.9,0.6-1.7,2.3-2.8,0.8c-1.2-1.7-2.1-3.7-2.7-5.8c-0.4-1.5,1.4-1.9,2.3-1.9c4.7,0.2,5.6-2.9,6.8-6.5
					s1-7.2,1-10.8c0-9.6-3.5-12.1-12.8-9.4c-2.1,0.6-4.1,1.8-6.6,0.5c-3.7-1.8-5.3-0.7-5.1,3.7c0.2,3.3,1.7,6.7,1.3,9.8
					c-1.6,12.2,0.5,24.5-1.7,36.6c-0.8,4.4,1.7,7.7,5.7,7.5c3.1-0.1,6.3-0.8,8.7-3.2c1.7-1.7,4.2-4.1,2.5-6.3
					c-1.6-2.2-3.3,1.1-4.9,1.8c-5.3,2.3-6,2-6.8-3.8c-0.6-4.2-0.4-8.2,0.4-12.3C103,246.4,103.3,246.2,110.8,246.6z M33.8,237.2
					c-0.2-1.4-0.2-2.9-0.7-4.2c-0.4-1.1-1.5-1.8-2.9-1.5c-1.1,0.2-2.1,1-1.9,2c1,5.6-3.2,5.3-6.6,6c-1.2,0.2-2.3,0.7-2.3,2.1
					c0.1,1.7,1.4,2.5,2.7,2.2c7.1-1.9,6.6,2.7,6.6,7.2c0,3.3,0.3,6.6,0.6,9.9c0.1,1.6-0.4,2.8-2,2.8c-1.5,0-1.5-1.5-1.6-2.6
					c-0.3-2.6,1-5.3,0.1-7.9c-0.5-1.4-0.6-3.3-2.5-3.2c-2.2,0.2-2,2.1-2.2,3.8c-0.3,4.4,1.2,8.9-1,13.2c-0.9,1.7,0.8,2.6,1.8,3.7
					c1.1,1.1,2.4,1.3,3.6,0.3c3.6-3.1,7.9-3.8,12.5-4.3c1.9-0.2,4.5-1.1,3.8-3.6c-0.6-2.2-2.9-1.4-4.7-1c-1.6,0.4-3.3,1-4.1-1.3
					c-1.5-4.6,0.5-8.2,5.1-9.1c1.8-0.3,3.8-0.4,4.4-2.6c0.2-0.7-0.1-1.9-0.7-2.2c-1.6-1.2-3.3-1-5,0.3c-0.9,0.7-2.1,1.5-3.2,0.8
					c-1-0.7-0.7-2.1-0.7-3.3c0.1-1.6,1.1-2.6,2.5-2.7c2.7-0.1,6.8,0.9,6-3.2c-0.7-3.7-4.6-1.7-7.2-1.5
					C34.2,237.4,34.1,237.2,33.8,237.2z M49.3,257.7c7.6,4,11.6,1.8,12.1-6.5c0.1-1.8,0.3-3.7,0-5.5c-0.4-1.8,0.1-4.9-2.3-4.8
					c-3,0.1-1.8,3.3-2.1,5.2c-0.1,1,0,2,0,3c0,1.9-0.8,4.7-2.4,4c-1.9-0.8-5.4-0.8-5.7-3.5c-0.7-5.7-0.9-11.5-0.1-17.3
					c0.3-2.5,2.7-2.3,4.2-2.6c1.9-0.4,2.5,1,2.6,2.8c0.1,1.5,0.3,3,0.6,4.4c0.3,1.6,1.4,2.8,2.7,1.6c2.2-2,2.2-5,2.3-7.8
					c0-1.9,0.3-3.6-2.1-5c-3.4-1.9-7,0-10-0.9c-5.2-1.5-5.5,1.1-5.3,4.6c0.8,12.9,0.6,25.8,1,38.8c0.1,2.8-0.7,6.4,2.9,9.1
					C50.3,270.8,47.4,264.2,49.3,257.7z M16,232.9c-4.5,0.2-12,7.5-12.9,12.6c-0.3,1.6-0.5,3.1,1.3,3.8c1.7,0.7,2.8-0.5,3.6-1.8
					c0.8-1.2,0.8-3.8,3.3-2.6c2.1,1,1.7,3,1.3,4.8c-1.2,6-2.1,12-6.4,16.9c-1.5,1.7-2.4,4.1,0.2,5.6c2.1,1.2,3.4-0.4,4.6-2.3
					c4.6-7.7,6.4-15.9,4.4-24.8c-0.7-3-1.2-6,2.3-7.9c1-0.5,1.9-1.5,1.3-2.9C18.4,233.1,17.3,232.7,16,232.9z M70.7,241.8
					c2.1,0.1,3.8-1.1,4.3-2.8c0.9-3.4,3-6.2,4.5-9.3c3.6-7.7,4.1-9.5,10.5-2.5c1.1,1.2,2.5,2.6,4.1,0.6c1.3-1.6,0.8-3.1-0.7-4.4
					c-2.4-2.1-4.3-4.6-6.2-7c-2.3-3-5.6-2.5-7.1,0.8C77,224.1,75,231.4,69,236.8C66.7,238.7,68.1,241.7,70.7,241.8z M84.1,251
					c-2.7,2.9-3,6.2-2.6,9.2c0.7,5-1.6,7.4-5.9,8.8c-1.4,0.5-2.9,0.6-4,1.8c-1.3,1.4-1.6,3-0.4,4.5c1,1.3,2.8,1.7,4,0.7
					c4.5-3.9,9.9-4.3,15.4-4.3c1.8,0,2.8-0.7,2.8-2.6c0-2-1-3.1-3.1-2.8c-4.3,0.6-5-1.9-4.8-5.4C85.6,257.8,85.8,254.6,84.1,251z
					 M86.8,230.4c-1.9,0-7.2,1.3-7.4,1.9c-1.2,2.8,1.5,3.5,2.6,5.2c0.4,0.7,0.2,2,0,2.9c-0.7,2.5-3,2.1-4.9,2.5
					c-2.7,0.5-3.5,2.3-2.9,4.8c0.7,2.9,2.7,0.7,4,0.7c1.4,0,2.8-1.7,4,0.1c1.5,2.1,2.5,1.1,3.7-0.3c0.9-1,2.1-1.4,3.6-1.3
					c1.7,0.1,3.9,0.8,3.9-2.3c-0.1-2.6-1.8-2.8-3.8-2.7c-1.4,0-3-0.1-3.1-1.7c0-1.6-0.7-3.9,1.8-4.5c1.8-0.5,2.5-1.6,2-3.3
					C89.8,230.5,88.3,230.3,86.8,230.4z M26.2,231.1c3.4-1.7,7.6-2.9,12.1-2.5c0.9,0.1,1.4-0.8,1.4-1.7c0-1.2-0.5-2.3-1.5-3
					c-1.2-0.8-2.6-0.6-3.9-0.3c-2.1,0.5-4.4,2-6.2,0.9c-2.6-1.5,0.2-3.8,0-5.8c-0.1-1.8-0.8-3.4-2.7-3.6c-1.9-0.2-2.6,1.1-2.6,2.8
					c0,2.4-0.8,4.5-1.8,6.6C19.7,227.9,21.9,231,26.2,231.1z M18.5,220.5c0-1.4-0.3-2.8-1.8-3.1c-1.8-0.4-3.9-0.4-5,1.3
					c-1.9,3.1-4.5,5.6-6.9,8.2c-0.8,0.8-1.6,1.9-0.8,3c1,1.3,2.6,1.1,3.6,0.3c2.9-2.3,6.1-4.4,9.3-6.3
					C18,223.3,18.5,221.9,18.5,220.5z M77.4,260.1c-0.2-1.9-0.1-4.9-2.2-7.3c-0.5-0.6-1.4-0.1-1.7,0.4c-1.9,2.8-0.7,5.7,0.2,8.5
					c0.4,1.2,0.1,3.6,2.1,3.4C78,264.8,77.2,262.6,77.4,260.1z M93.8,254.3c-0.3-1.2,0.1-3.5-1.9-3c-2.9,0.7-2.7,3.9-3,6.3
					c-0.2,1.5-0.6,4.2,1.6,3.9C94.5,261,92.6,256.9,93.8,254.3z"/>
				<path class="st14" d="M19.1,286.5c-2.7,5.7,0.3,9.4,4.5,12.7c-3,0.5-2.8,0.3-4.8-2.2c-1.3-1.5-2.3-4.9-5.4-2.8
					c-2.2,1.5-1.4,3.5,0.5,5.4c-1.8-0.2-3.7,1.1-3.6-1.7c0.1-4.2,0-8.3,0-12.5c0-0.8,0-1.7,1-2c0.8-0.2,1.6,0,2.2,0.7
					c1,1.3-0.7,1-0.9,1.6c-0.8,2.1-0.5,4.2-0.1,6.7C15.6,291.2,17.2,288.7,19.1,286.5L19.1,286.5z"/>
				<path class="st14" d="M73.4,288.2c-1.5-3-3.5-3.5-5.1-3c-1.8,0.5-0.9,2.6-0.9,3.9c-0.1,3-0.1,6,0.3,8.9c0.1,1.1,0.8,1.7-0.8,1.7
					c-1,0-1.7,0-1.5-1.6c0.4-3.1,0.1-6.3,0.2-9.4c0.1-3.3-0.9-4.5-3.9-2.3c-0.6,0.5-1.3,1.4-1.8,0c-0.2-0.7-0.2-1.7,0.2-2.3
					c0.6-0.9,11.7-0.6,12.3,0.4C72.7,285.3,72.8,286.3,73.4,288.2z"/>
				<path class="st14" d="M46.2,300.3c-3.3-0.3-5.6-0.4-3.9-4c0.5-0.9,0-2.3,0.1-3.5c0-1.7-1-2.3-2.5-2.4c-1.7-0.1-2.5,1-2.7,2.3
					c-0.3,1.7-0.4,3.5-0.1,5.1c0.5,2.5-1.1,1.9-2.3,1.9c-2.8,0-0.3-1.4-0.5-2.1c-0.1-0.5,0.1-1,0-1.5c-0.3-2-0.9-4.3-1-6
					c-0.1-2.8,3,0.9,5.1-0.7c3-2.3,5.6-0.6,6,3.3C44.6,295.2,44,297.7,46.2,300.3z"/>
				<path class="st14" d="M93,284c2.9-1.2,4.2-0.4,4,3c-0.2,3.5-0.2,7,0.1,10.5c0.1,1.8-0.4,2.4-2.1,2.2c-2.5-0.2-0.5-1.6-0.6-2.3
					C93.8,292.9,95.6,288.3,93,284z"/>
				<path class="st14" d="M120.2,290c-0.3,0.2-0.7,0.6-1,0.6c-5.6,0.1-3.5,4.3-3.8,7.2c-0.1,0.9,2.3,1.5,0.4,2.5
					c-0.8,0.4-2,0.3-2.8,0c-2.2-1,0.3-1.5,0.4-2.3c0.1-1.1,0.4-2.4,0.1-3.4c-1.9-5.6,2.5-5.3,5.7-6C119.9,288.3,120.2,289,120.2,290
					z"/>
				<path class="st14" d="M79.5,291.8c-1.3-0.2-3.6,2.1-3.6-1c0-1.5,1.8-2.5,3.7-2.4c1.8,0.1,3.6,1.3,3.5,2.8
					C82.8,293.9,80.8,291.9,79.5,291.8z"/>
				<path class="st12" d="M89.9,284.6c0.1,4.4,0.1,8.9,0.3,13.3c0,1.2-0.2,1.9-1.6,1.8c-1.8-0.1-0.7-1.2-0.7-2
					c0.1-4.2,0.6-8.5-0.3-12.7c-0.4-1.8,0.8-1.3,1.7-1.2C89.5,284,89.7,284.3,89.9,284.6z"/>
				<path class="st14" d="M29.2,295.3c-1.3,1.2,1.7,4.1-0.4,4.2c-4.1,0.1,0.6-3.2-1-4.6c-0.3-0.3-0.3-1.4,0-1.9c0.7-1.3-3-3.2,0-3.6
					c2.2-0.3,1,2.4,1.3,3.7C29.3,293.7,29.2,294.4,29.2,295.3z"/>
				<path class="st14" d="M57.8,303.2c-1.4-3.4-4.2-4.6-6.5-3.5c-3.5,1.8-2-1.7-3.3-2.1C57.5,298.2,57.9,298.5,57.8,303.2z"/>
				<path class="st14" d="M19.2,286.6c1-0.9,0.1-1.6-0.3-2.4c1-0.5,1.9-1.1,3-1.4c0.7-0.2,1.3,0.3,1.3,1.1c0,1.2-1,1.5-1.9,1.9
					C20.6,286,19.9,286.2,19.2,286.6C19.1,286.5,19.2,286.6,19.2,286.6z"/>
				<path class="st12" d="M100.9,296.5c-1-1.3-0.7-2.4-0.2-3.7C101.8,294.1,101.5,295.2,100.9,296.5z"/>
				<path class="st14" d="M89.9,284.6c-0.2-0.3-0.4-0.6-0.6-0.9C90,283.7,90.2,284,89.9,284.6z"/>
				<path class="st13" d="M110.8,246.6c-7.5-0.4-7.8-0.2-9,6.1c-0.8,4.1-1,8.1-0.4,12.3c0.9,5.8,1.5,6.2,6.8,3.8
					c1.6-0.7,3.3-4,4.9-1.8c1.6,2.2-0.8,4.6-2.5,6.3c-2.3,2.4-5.6,3-8.7,3.2c-4,0.2-6.5-3.1-5.7-7.5c2.2-12.1,0.1-24.4,1.7-36.6
					c0.4-3.1-1.1-6.5-1.3-9.8c-0.3-4.4,1.4-5.5,5.1-3.7c2.5,1.2,4.5,0.1,6.6-0.5c9.3-2.7,12.8-0.2,12.8,9.4c0,3.6,0.2,7.2-1,10.8
					c-1.2,3.5-2.2,6.7-6.8,6.5c-0.9,0-2.7,0.4-2.3,1.9c0.6,2,1.5,4.1,2.7,5.8c1,1.4,1.9-0.2,2.8-0.8c1.8-1.2,3.4-2.4,4-4.8
					c0.5-2.3,2.4-4,4.9-2.8c2.7,1.4,2,3.9,0.7,6c-1.6,2.6-4.5,4-6.6,6.3c-2,2.2-1.5,3.1,0.1,4.7c1.9,1.9,4,3.5,6.3,4.8
					c2.2,1.2,3.6,3.4,2.1,5.8c-1.7,2.6-4.1,1.4-6.1,0.1c-2.1-1.4-3.6-3.4-5.2-5.3c-2.1-2.5-3.7-6.1-8.2-4.5
					c-0.9,0.3-2.1-0.2-2.4-1.2c-0.2-0.8,0.5-1.7,1.3-1.9c3.5-0.9,2.8-3.4,2.5-6C109.5,251,109,248.7,110.8,246.6z M116.3,230.2
					c0.1-6.3-1.3-7.4-7.3-5.6c-1.3,0.4-2.5,0.9-3.8,1.1c-2.3,0.4-3,1.7-2.7,3.8c0.5,2.8,2.5,1.3,3.9,1.3c0.8,0,1.7-0.5,2.4-0.3
					c1.2,0.3,3.2-0.2,3.4,1.9c0.2,2-0.8,3-2.9,3.1c-1.5,0.1-2.9,0.7-4.3,0.8c-2.6,0.2-2.7,1.9-2.5,3.9c0.3,2.1,1.7,1.9,3.3,1.8
					C114.3,241.7,116.1,239.7,116.3,230.2z"/>
				<path class="st13" d="M33.8,237.2c0.2,0.1,0.4,0.2,0.5,0.2c2.6-0.3,6.6-2.3,7.2,1.5c0.7,4.1-3.4,3.1-6,3.2
					c-1.4,0.1-2.4,1.1-2.5,2.7c-0.1,1.2-0.3,2.6,0.7,3.3c1.1,0.8,2.3-0.1,3.2-0.8c1.7-1.3,3.4-1.5,5-0.3c0.5,0.4,0.8,1.6,0.7,2.2
					c-0.6,2.2-2.6,2.3-4.4,2.6c-4.7,0.9-6.7,4.5-5.1,9.1c0.8,2.4,2.5,1.7,4.1,1.3c1.8-0.4,4.2-1.2,4.7,1c0.7,2.5-1.9,3.4-3.8,3.6
					c-4.5,0.5-8.8,1.2-12.5,4.3c-1.2,1-2.5,0.8-3.6-0.3c-1-1-2.7-1.9-1.8-3.7c2.2-4.3,0.6-8.8,1-13.2c0.1-1.7-0.1-3.6,2.2-3.8
					c2-0.2,2.1,1.8,2.5,3.2c0.9,2.6-0.4,5.3-0.1,7.9c0.1,1.2,0.2,2.6,1.6,2.6c1.5,0,2.1-1.2,2-2.8c-0.3-3.3-0.6-6.6-0.6-9.9
					c0-4.6,0.5-9.1-6.6-7.2c-1.3,0.3-2.7-0.5-2.7-2.2c0-1.4,1.1-1.9,2.3-2.1c3.4-0.7,7.5-0.5,6.6-6c-0.2-1,0.8-1.8,1.9-2
					c1.3-0.3,2.4,0.4,2.9,1.5C33.6,234.3,33.6,235.8,33.8,237.2z"/>
				<path class="st13" d="M49.3,257.7c-1.9,6.4,1,13.1-1.8,19.6c-3.6-2.7-2.8-6.3-2.9-9.1c-0.4-12.9-0.2-25.8-1-38.8
					c-0.2-3.6,0-6.2,5.3-4.6c3,0.9,6.6-1,10,0.9c2.4,1.3,2.2,3.1,2.1,5c-0.1,2.8,0,5.8-2.3,7.8c-1.3,1.2-2.4,0-2.7-1.6
					c-0.3-1.5-0.5-2.9-0.6-4.4c-0.1-1.7-0.7-3.2-2.6-2.8c-1.6,0.4-3.9,0.1-4.2,2.6c-0.8,5.8-0.6,11.6,0.1,17.3
					c0.3,2.8,3.8,2.7,5.7,3.5c1.6,0.7,2.4-2.1,2.4-4c0-1-0.1-2,0-3c0.2-2-1-5.1,2.1-5.2c2.4-0.1,1.9,3.1,2.3,4.8s0.1,3.6,0,5.5
					C61,259.5,56.9,261.7,49.3,257.7z"/>
				<path class="st13" d="M16,232.9c1.3-0.3,2.3,0.1,2.9,1.4c0.6,1.4-0.3,2.3-1.3,2.9c-3.5,1.9-2.9,4.9-2.3,7.9
					c2,8.9,0.2,17-4.4,24.8c-1.2,2-2.4,3.6-4.6,2.3c-2.5-1.5-1.7-3.8-0.2-5.6c4.3-4.9,5.2-10.9,6.4-16.9c0.4-1.8,0.8-3.9-1.3-4.8
					c-2.4-1.1-2.5,1.4-3.3,2.6C7,248.9,6,250,4.3,249.3c-1.8-0.7-1.6-2.2-1.3-3.8C4.1,240.5,11.5,233.2,16,232.9z"/>
				<path class="st13" d="M70.7,241.8c-2.6-0.1-4-3.1-1.8-5.1c5.9-5.4,7.9-12.8,11.1-19.6c1.5-3.3,4.8-3.8,7.1-0.8
					c2,2.5,3.8,5,6.2,7c1.5,1.2,2,2.8,0.7,4.4c-1.6,2-3,0.6-4.1-0.6c-6.4-6.9-6.9-5.2-10.5,2.5c-1.4,3.1-3.5,5.9-4.5,9.3
					C74.5,240.7,72.8,241.9,70.7,241.8z"/>
				<path class="st13" d="M84.1,251c1.8,3.6,1.6,6.8,1.4,9.9c-0.2,3.5,0.5,6,4.8,5.4c2.1-0.3,3.1,0.7,3.1,2.8c0,1.9-1,2.6-2.8,2.6
					c-5.5,0-10.9,0.4-15.4,4.3c-1.2,1.1-3,0.6-4-0.7c-1.2-1.5-0.9-3.1,0.4-4.5c1.1-1.2,2.6-1.4,4-1.8c4.3-1.4,6.6-3.8,5.9-8.8
					C81.1,257.2,81.4,253.9,84.1,251z"/>
				<path class="st13" d="M86.8,230.4c1.5-0.1,3,0,3.5,1.8c0.5,1.7-0.2,2.8-2,3.3c-2.5,0.7-1.9,2.9-1.8,4.5c0,1.6,1.7,1.8,3.1,1.7
					c2,0,3.7,0.2,3.8,2.7c0.1,3.1-2.2,2.3-3.9,2.3c-1.5-0.1-2.7,0.3-3.6,1.3c-1.2,1.3-2.2,2.4-3.7,0.3c-1.2-1.7-2.7-0.1-4-0.1
					s-3.3,2.2-4-0.7c-0.6-2.4,0.2-4.3,2.9-4.8c1.9-0.3,4.2,0.1,4.9-2.5c0.2-0.9,0.4-2.2,0-2.9c-1.1-1.6-3.8-2.4-2.6-5.2
					C79.6,231.8,84.9,230.4,86.8,230.4z"/>
				<path class="st13" d="M26.2,231.1c-4.3,0-6.5-3.2-5.1-6.5c0.9-2.2,1.8-4.2,1.8-6.6c0-1.7,0.8-3.1,2.6-2.8
					c1.9,0.3,2.6,1.9,2.7,3.6c0.2,2-2.7,4.3,0,5.8c1.8,1.1,4.1-0.5,6.2-0.9c1.3-0.3,2.7-0.5,3.9,0.3c1,0.7,1.5,1.8,1.5,3
					c0,0.9-0.5,1.8-1.4,1.7C33.8,228.2,29.5,229.4,26.2,231.1z"/>
				<path class="st13" d="M18.5,220.5c0,1.4-0.5,2.8-1.6,3.5c-3.3,1.9-6.4,3.9-9.3,6.3c-1,0.8-2.6,1-3.6-0.3c-0.9-1.2,0-2.2,0.8-3
					c2.4-2.6,5.1-5.1,6.9-8.2c1-1.7,3.1-1.8,5-1.3C18.2,217.7,18.5,219.1,18.5,220.5z"/>
				<path class="st13" d="M77.4,260.1c-0.1,2.5,0.7,4.7-1.6,5c-2,0.2-1.7-2.2-2.1-3.4c-0.9-2.7-2.2-5.6-0.2-8.5
					c0.4-0.5,1.2-1,1.7-0.4C77.3,255.2,77.2,258.2,77.4,260.1z"/>
				<path class="st13" d="M93.8,254.3c-1.2,2.6,0.7,6.6-3.3,7.2c-2.2,0.3-1.8-2.4-1.6-3.9c0.3-2.4,0.1-5.5,3-6.3
					C93.9,250.8,93.5,253.2,93.8,254.3z"/>
				<path class="st14" d="M116.3,230.2c-0.1,9.5-1.9,11.4-10.5,11.8c-1.6,0.1-3,0.3-3.3-1.8c-0.2-2-0.1-3.7,2.5-3.9
					c1.5-0.1,2.9-0.7,4.3-0.8c2.1-0.1,3.1-1.2,2.9-3.1c-0.2-2.1-2.1-1.5-3.4-1.9c-0.7-0.2-1.6,0.3-2.4,0.3c-1.4,0-3.4,1.6-3.9-1.3
					c-0.4-2.1,0.3-3.5,2.7-3.8c1.3-0.2,2.5-0.7,3.8-1.1C115,222.8,116.3,223.9,116.3,230.2z"/>
			</g>
		</g>
	</g>
	<path class="st15" d="M107.5,509.2c-18.4,0-36.9,0-55.3,0c-1.8,0-1.8,0-1.8-1.8c0-16.3,0-32.6,0-48.8c0-2.2,0-2.2,2.3-2.2
		c9.4,0,18.7,0,28.1,0c27.1,0,54.2,0,81.3,0c2.5,0,2.5,0,2.5,2.5c0,16,0,32,0,48.1c0,0.3,0,0.5,0,0.8c0.1,1.3-0.4,1.6-1.7,1.6
		C144.5,509.2,126,509.2,107.5,509.2z M154.7,469.6c-0.1-3.3-1.4-5-3-6.4c-0.6-0.5-1.5-0.9-2.2-0.8c-2.3,0.3-4.6,0.7-6.9,1.2
		c-1.9,0.4-3.8,1-5.6-0.5c-1.1-0.9-2.3-0.4-2.8,0.9c-0.3,0.8-0.5,1.9-0.2,2.7c1.3,4,1.2,8,0.7,12.1s-1.1,8.3-0.2,12.4
		c0.4,1.7,0.2,3.2-0.2,4.8c-0.3,1.1-0.6,2.3-0.7,3.4c-0.2,2.7,0.1,4.7,3.5,5.1c4.1,0.5,7.5-1,10.3-4.1c0.3-0.3,0.5-0.8,0.6-1.3
		s0-1,0-1.6c-0.6,0.1-1.3,0-1.8,0.2c-1.3,0.6-2.6,1.4-3.9,1.9c-2.6,1-4.8,0.7-4.8-2.8c0-0.9-0.3-1.9-0.3-2.8
		c-0.1-0.9-0.2-1.9-0.1-2.8c0.3-2.1,0.7-4.2,1.1-6.3c0.2-1,0.9-1.3,1.7-1.5c1.1-0.2,2.2-0.4,3.3-0.6c1.9-0.3,3.7-0.9,5.6-0.9
		c2.2,0,3.5-1,4-2.9C153.5,475.7,154.2,472.2,154.7,469.6z M93.2,477.7c-0.1,0-0.2,0-0.3,0c0.2-1.7,0.3-3.4,0.5-5.1
		c0-0.4,0.3-0.9,0.6-1c1.1-0.3,2.2-0.7,3.4-0.7c1.2-0.1,2,0.7,2.1,2c0.1,1.1,0.1,2.3,0.3,3.3c0.2,0.6,0.7,1.3,1.3,1.5
		c0.9,0.3,1.5-0.4,1.6-1.2c0.3-2.2,0.6-4.5,0.7-6.7c0-0.4-0.4-0.9-0.7-1.1c-1.1-0.5-2.3-1.2-3.4-1.3c-1.7-0.1-3.4,0.2-5.1,0.3
		c-0.5,0-1.1,0.1-1.4-0.1c-0.9-0.6-1.8-1-2.8-0.3c-1.1,0.7-1.3,1.8-1.2,2.9c0,0.6,0.2,1.3,0.3,1.9c0.2,8.5,0.5,17,0.7,25.6
		c0,0.3-0.1,0.6-0.1,0.9c0.2,1.9,0.3,3.7,0.7,5.6c0.1,0.5,0.9,0.9,1.3,1.3c0.5-0.5,1.3-1,1.3-1.5c0.3-2.1,0.3-4.2,0.4-6.3
		c0-2-0.1-4.1-0.1-6.2c0-0.8,0.5-0.8,1-0.5c0.4,0.2,0.7,0.5,1,0.8c2.3,1.3,5.5,1.5,7.3-1c0.7-1,1.3-2,1.1-3.3
		c-0.2-2.2-0.2-4.4-0.4-6.7c-0.1-0.6-0.8-1-1.3-1.6c-0.5,0.5-1.1,0.9-1.5,1.4c-0.2,0.4-0.1,1-0.2,1.5c0,1.5,0,3-0.1,4.5
		c-0.1,1.1-0.8,1.9-1.8,2c-0.6,0.1-1.4-0.5-2-0.7c-0.8-0.3-1.5-0.8-2.3-0.9s-1-0.4-1-1.1C93.2,483.1,93.2,480.4,93.2,477.7z
		 M83.3,480.1c0.6-0.1,1.5,0,2.3-0.2c1-0.2,1.7-0.9,1.7-2c0-1-0.8-1.5-1.7-1.6c-1.1-0.1-2.1-0.1-3.2,0.1c-2,0.3-2,0.3-2-1.7
		c0-1.4-1.1-2.5-2.3-2.4s-1.9,0.9-1.8,2.5c0,0.3,0,0.5,0.1,0.8c0.1,1.4-0.4,1.8-1.7,2c-1.5,0.2-3.1,0.5-4.5,0.9
		c-0.5,0.1-1.2,0.8-1.2,1.2c0,0.5,0.7,1.1,1.1,1.5c0.3,0.2,0.8,0.2,1.2,0.2c1,0,2.1-0.1,3.1-0.2c1.6-0.1,2.3,0.5,2.5,2.1
		c0.1,0.9,0,1.7,0.1,2.6c0.1,2.5,0.2,5,0.4,7.4c0.1,1.3-0.4,2.3-1.7,2.6c-1.2,0.2-2.1-0.4-2.1-1.9c0-1.1,0.2-2.2,0.2-3.3
		c0-1.2-0.1-2.4-0.5-3.5c-0.2-0.5-1.1-1-1.7-1c-0.9,0-1.3,0.8-1.3,1.6c0,1.8-0.1,3.5,0.1,5.3c0.2,1.7,0.1,3.3-0.8,4.8
		c-0.5,0.8-0.2,1.4,0.4,1.9c0.4,0.4,0.8,0.9,1.3,1c0.7,0.2,1.7,0.4,2.2,0c2.9-2.1,6.2-2.9,9.7-2.9c1.1,0,2.2-0.4,3.2-0.9
		c0.6-0.4,1.4-1.3,1.4-1.9c-0.1-1.1-1.3-0.9-2.2-1c-0.3,0-0.7,0-1,0.1c-0.8,0.2-1.7,0.4-2.5,0.5c-1.2,0.2-1.9-0.5-1.9-1.7
		c0-1,0-2,0-3c0-1.5,0.9-2.5,2.4-2.7c1.4-0.2,2.8-0.4,4.2-0.6c1-0.2,1.6-0.9,1.5-1.8c-0.1-0.6-0.8-1.4-1.3-1.6
		c-0.8-0.2-1.8,0-2.7,0.2c-0.8,0.2-1.5,0.7-2.2,1c-1,0.5-1.8,0-1.9-1.1C79.4,480.7,80.6,479.5,83.3,480.1z M159.3,483.3
		c-0.3-0.4-0.6-1.2-1.3-1.6c-0.9-0.6-1.9-0.3-2.7,0.5c-0.4,0.5-0.7,1.2-1.2,1.7c-0.8,0.9-1.5,1.8-2.4,2.7c-0.5,0.5-1.2,0.9-1.7,1.3
		c-1,0.8-1.8,0.7-2.4-0.4c-0.4-0.8-0.6-1.7-1.1-2.5c-0.3-0.5-0.9-0.7-1.3-1.1c-0.3,0.6-0.8,1.1-0.8,1.7c-0.1,0.7,0,1.5,0.2,2.2
		c0.6,2.2,0.4,3.9-2.3,4.5c-0.3,0.1-0.6,0.6-0.6,1c0,0.2,0.4,0.7,0.7,0.7c0.9,0.1,1.8,0,2.7,0.1c0.9,0,2.1-0.2,2.7,0.3
		c1.2,0.9,2.1,2.1,2.9,3.4c1.4,2.3,3.7,3.3,5.8,4.5c1.2,0.7,2.7,0.3,3.5-0.7c0.6-0.8,0.5-2.2-0.4-3.2c-0.6-0.6-1.4-1.1-2.2-1.5
		c-2-1.2-4.2-2.1-5.7-4c-0.6-0.7-0.8-1.4,0.1-2c1.5-1,3-1.9,4.6-2.8C158,487,159.1,485.8,159.3,483.3z M65.7,486.2
		c-0.1,0-0.1,0-0.2-0.1c-0.1-0.8-0.2-1.6-0.3-2.4c-0.2-0.8-0.6-1.5-0.7-2.3c-0.4-2.4-0.4-3.8,1.8-4.8c0.4-0.2,0.8-0.6,1.1-1.1
		c0.5-0.8,0.1-2.1-0.7-2c-1.4,0-2.9,0.2-4.2,0.7c-1.2,0.5-2.2,1.4-3.3,2.2c-2.3,1.7-4,3.9-4.6,6.7c-0.2,0.9,0,1.8,0.9,2
		c0.6,0.2,1.6,0.1,2.1-0.3c0.6-0.4,1-1.3,1.3-2c0.8-1.6,1.9-1.8,3.3-0.7c0.8,0.6,0.9,1.4,0.8,2.3c-0.6,5-2.4,9.3-5.7,13.1
		c-0.5,0.5-0.8,1.2-1.1,1.9c-0.4,1.3,0.4,2.4,1.8,2.4c1.2,0,2.2-0.5,2.8-1.5c1.7-2.3,3.5-4.5,3.4-7.6c0-0.3,0.2-0.7,0.3-1
		C64.9,489.9,65.3,488,65.7,486.2z M122.2,460.3c-0.1-0.1-0.1-0.2-0.2-0.3c-0.8,0.6-1.8,1-2.3,1.8c-1.1,1.7-2.1,3.5-2.8,5.4
		c-0.8,2.2-2,4.2-3.7,5.8c-1.1,1-2.2,2.1-3.1,3.2c-0.7,0.9-1,2-0.1,3c0.7,0.8,2.2,0.9,3.2,0.2c0.3-0.2,0.5-0.3,0.7-0.6
		c0.8-1,1.6-2,2.2-3.1c1-1.6,1.9-3.3,2.9-5c0.7-1.2,1.1-2.5,1.8-3.7c1-1.7,2.3-2,3.9-0.9c1.4,0.9,2.5,2.1,3.8,3.2
		c1.1,1,2.3,1,3.1,0.2c0.8-0.9,0.7-2.2-0.5-3.1c-0.3-0.2-0.6-0.3-0.9-0.6c-1.4-1.1-2.9-2.1-4.1-3.5
		C125,461.1,123.9,460.2,122.2,460.3z M128.2,483.6c1.8,0,2.7-0.5,2.8-1.5s-0.8-2-2.1-2.2c-0.3-0.1-0.6-0.1-0.9-0.1
		c-3.2-0.1-3.3-0.1-2.8-3.3c0-0.1,0-0.2,0-0.3c0-0.8,0.4-1.1,1.2-1.2c1.2-0.1,1.9-0.9,1.8-1.9c-0.1-1-1.3-1.9-2.3-1.8
		c-1.7,0.2-3.5,0.3-5.2,0.5c-1.1,0.1-1.7,0.9-1.7,1.8c0,0.6,0.4,1.5,1,1.9c1.7,1.1,1.9,3.7,0.2,4.7c-0.7,0.4-1.6,0.3-2.4,0.5
		c-1,0.3-2.2,0.6-3,1.2c-0.4,0.3-0.6,1.4-0.4,2.1c0.1,0.4,1,0.8,1.6,0.9c0.8,0.1,1.7-0.1,2.5-0.4c2.3-0.8,2.3-0.8,3.6,1
		c0.5,0.6,0.8,0.6,1.3,0.1C124.7,484.1,126.2,482.7,128.2,483.6z M120.4,493.7c0.4,3.1-0.1,3.9-2.9,5.1c-1.3,0.5-2.8,0.8-4.2,1.2
		c-1.4,0.5-2.3,2-1.9,3.2c0.3,1,1.4,1.6,2.9,1.3c0.9-0.2,1.8-0.7,2.7-1.1c1.6-0.7,3.1-1.6,4.7-1.9c2-0.4,4.2-0.3,6.3-0.4
		c0.6,0,1.1,0,1.7-0.1c0.9-0.3,1.4-0.9,1.5-1.9c0-1-0.7-1.5-1.5-1.7c-0.5-0.1-1.1-0.1-1.7-0.1c-2.9,0.3-3.9-0.9-3.7-3.8
		c0.1-1.9-0.2-3.9-0.5-5.9c-0.1-0.9-1-1.2-1.7-0.5c-0.3,0.3-0.6,0.8-0.7,1.2C120.9,490.2,120.7,492,120.4,493.7z M83.3,470.2
		c1.4,0,2.3-0.4,2.4-1.2c0.1-0.9-0.8-2.2-1.9-2.4c-0.8-0.2-1.6-0.2-2.4-0.1c-1.4,0.2-2.8,0.7-4.3,0.9c-0.8,0.1-1.9,0-2.4-0.5
		c-0.3-0.3-0.1-1.5,0.2-2.2c0.5-1.4,0.5-2.5-0.7-3.3c-0.4-0.3-1.2-0.5-1.8-0.3c-0.4,0.1-1,0.8-1,1.3c-0.1,2-0.9,3.6-1.6,5.4
		c-0.3,0.7-0.3,1.9,0.2,2.5c1.3,1.7,3.6,2.2,5.5,1.3c2.4-1.2,4.9-1.9,7.5-1.2C83.1,470.2,83.2,470.2,83.3,470.2z M67.4,464.4
		c-0.3-1.3-1.2-2.3-2.3-2.2c-0.8,0.1-1.8,0.2-2.4,0.7c-2.1,1.7-4.2,3.5-6.2,5.3c-0.4,0.3-0.8,0.7-1,1.2c-0.2,0.4-0.4,1.1-0.2,1.4
		c0.2,0.4,0.9,0.8,1.3,0.7c0.8-0.1,1.5-0.5,2.2-0.9c1.5-0.9,3-1.8,4.5-2.7c0.7-0.4,1.6-0.6,2.2-1.1
		C66.2,466.2,66.7,465.3,67.4,464.4z M117.3,493.6c0.1,0,0.2,0,0.2-0.1c-0.3-1.5-0.6-2.9-1-4.4c-0.2-1-1-1.5-1.9-1.4
		c-1,0.1-1.6,0.8-1.5,1.8c0.2,1.7,0.5,3.5,1,5.1c0.2,0.7,1.3,1.7,2,1.6c1.2-0.1,1.2-1.3,1.1-2.4
		C117.3,493.9,117.3,493.7,117.3,493.6z M126.6,491.7c0.4,0.8,0.7,1.9,1.3,2.1c0.9,0.4,1.6-0.5,2-1.4c0.5-1.1,1-2.2,1.3-3.3
		c0.3-0.9-0.1-1.7-1-2.1c-0.9-0.3-1.7,0.1-2.1,0.8C127.5,489,127.2,490.2,126.6,491.7z"/>
	<path class="st15" d="M67.2,511.7c1.6,0,3,0,4.6,0c-0.2,0.4-0.2,0.6-0.3,0.6c-2.1,0.4-3.3,2.1-4.9,3.2c-0.7,0.5-0.7,0.9-0.1,1.5
		c1.2,1.1,2.2,2.4,3.4,3.5c0.7,0.6,1.5,1,2.3,1.5c-0.7,0.7-4.1,0.8-5.4,0.1c0.3-0.3,0.5-0.6,0.9-1c-1-1.1-2-2.2-3-3.3
		c-0.6-0.6-2,0.4-2.1,1.5c-0.2,1.1,0.1,1.6,1.4,2.7c-0.8,0.7-4,0.7-5.1-0.1c2.3-0.5,1.6-2.2,1.7-3.7c0-1.1,0-2.2,0-3.4
		s0.4-2.6-1.6-2.7c0.8-1,3.9-1,5-0.2c-2.4,1-1.3,3-1.5,4.6c0.1,0.1,0.2,0.2,0.3,0.2c1.6-1.3,3.2-2.6,4.8-4
		C67.6,512.5,67.4,512.2,67.2,511.7z"/>
	<path class="st16" d="M47.9,527.6c0-24.6,0-49,0-73.4c39.8,0,79.7,0,119.8,0c0,0.4,0,0.8,0,1.2c0,23.6,0,47.3,0,70.9
		c0,1.2-0.4,1.4-1.5,1.4c-8.2,0-16.5,0-24.7,0c-11,0-21.9,0-32.9,0c-7.9,0-15.8,0-23.7,0c-11.9,0-23.9,0-35.8,0
		C48.7,527.6,48.4,527.6,47.9,527.6z M107.5,509.2c18.5,0,36.9,0,55.4,0c1.2,0,1.8-0.3,1.7-1.6c0-0.3,0-0.5,0-0.8c0-16,0-32,0-48.1
		c0-2.4,0-2.5-2.5-2.5c-27.1,0-54.2,0-81.3,0c-9.4,0-18.7,0-28.1,0c-2.3,0-2.3,0-2.3,2.2c0,16.3,0,32.6,0,48.8c0,1.8,0,1.8,1.8,1.8
		C70.7,509.2,89.1,509.2,107.5,509.2z M67.2,511.7c0.2,0.5,0.4,0.8,0.6,1.2c-1.7,1.4-3.2,2.7-4.8,4c-0.1-0.1-0.2-0.2-0.3-0.2
		c0.2-1.6-0.9-3.6,1.5-4.6c-1.1-0.8-4.2-0.7-5,0.2c2,0.1,1.5,1.5,1.6,2.7c0,1.1,0,2.2,0,3.4c-0.1,1.4,0.6,3.2-1.7,3.7
		c1.1,0.8,4.3,0.8,5.1,0.1c-1.4-1.1-1.6-1.6-1.4-2.7c0.2-1.1,1.5-2.1,2.1-1.5c1.1,1,2,2.2,3,3.3c-0.4,0.4-0.6,0.7-0.9,1
		c1.3,0.7,4.6,0.6,5.4-0.1c-0.8-0.5-1.6-0.9-2.3-1.5c-1.2-1.1-2.2-2.4-3.4-3.5c-0.6-0.6-0.6-1,0.1-1.5c1.6-1.1,2.9-2.8,4.9-3.2
		c0.1,0,0.1-0.2,0.3-0.6C70.2,511.7,68.8,511.7,67.2,511.7z M94,522.2c-0.2,0.2-0.4,0.4-0.5,0.5c-0.4,0.6-1.1,1.4-1,1.7
		c0.3,0.6,1.1,1.1,1.8,1.4c2.1,0.7,4.3,0.5,6.5-0.2c1-0.3,1.9-0.9,1.9-2c0-1.2-1-1.6-2-1.9c-0.3-0.1-0.6-0.1-0.9-0.2
		c-1.4-0.2-2.7-0.4-4.1-0.6c-0.4-0.1-0.8-0.3-1.2-0.4c0-0.2,0.1-0.3,0.1-0.5c0.8,0,1.5,0,2.3,0c3,0.1,4.2-1,4.1-3.9
		c0.1-0.1,0.2-0.1,0.3-0.2c0.4-0.2,0.8-0.5,1.1-0.7c-0.5-0.1-1-0.4-1.5-0.4c-0.8-0.1-1.5,0-2.3,0s-1.7-0.2-2.5-0.1
		c-3,0.4-3.8,2.2-2.2,4.7C92.5,520.8,92.5,520.9,94,522.2z M84.5,521.8c-2.3-0.2-1.8-1.6-1.8-2.8c0-0.3,0-0.5,0-0.8
		c-0.1-0.9,0.3-1.5,1.2-1.9c1.1-0.5,2.3-0.9,3.4-0.1c0.2,0.1,0.4,0.4,0.4,0.6c-0.2,1.8,1.2,3.9-1.3,5.2c1,0.7,3.8,0.7,4.8-0.1
		c-1.9-0.5-1.4-2-1.4-3.2c0-0.2,0-0.4,0-0.6c0-2.8-1.6-4-4.4-3.3c-0.9,0.2-1.7,0.6-2.5,0.9c-0.7-0.9-2.5-1.1-3.2-0.4
		c-0.1,0.1,0,0.6,0.2,0.8c0.2,0.3,0.9,0.6,0.8,0.8c-0.3,1.8,1.2,4-1.4,5.1C80.3,522.7,83,522.7,84.5,521.8z M106,521.9
		c1.6,0.9,4.5,0.8,5.2,0.3c-0.4-0.7-1.1-1.3-1.2-1.9c-0.1-2.2,0-4.4-0.1-6.6c0-0.9,0.4-1.2,1.3-1.2c1.2,0.1,2.1,0.6,2.8,1.6
		c0.2,0.2,0.6,0.3,1,0.4c0-0.3,0.2-0.7,0.1-1c-0.2-0.6-0.5-1.2-0.9-1.7c-0.2-0.3-0.6-0.5-0.9-0.5c-2.9,0-5.8,0-8.7,0
		c-0.4,0-0.8,0.3-1,0.5c-0.3,0.4-0.5,0.9-0.7,1.4c-0.1,0.4,0,0.8,0,1.3c0.4-0.2,0.9-0.3,1.1-0.6c0.7-0.9,1.6-1.3,2.8-1.3
		c0.8,0,1.2,0.3,1.1,1.2c0,1.7,0,3.4,0,5.2C107.9,520.1,108.4,521.6,106,521.9z M147.3,520.8c-0.1-0.1-0.2-0.2-0.3-0.4
		c-0.5,0.2-1,0.5-1.5,0.7c-2,1.1-4.4,0.3-4.9-1.8c-0.2-0.9,0.1-1.3,1-1.3c1.5,0,2.9,0,4.4,0c0.4,0,1.1-0.1,1.2-0.4
		c0.1-0.4,0-1-0.3-1.4c-1.2-1.9-4.4-2.3-6.6-0.9c-2.4,1.5-2.5,4.7-0.3,6.4c1.7,1.3,4.8,1.3,6.5,0
		C146.9,521.5,147.1,521.1,147.3,520.8z M124.5,520.3c-0.6,0.4-1.1,0.6-1.5,0.9c-1.8,1-4.1,0.4-4.8-1.4c-0.4-1.1-0.1-1.7,1.1-1.7
		c1.3,0,2.6,0.1,3.9,0c0.5,0,1.1-0.3,1.6-0.5c-0.2-0.6-0.3-1.3-0.7-1.7c-1.4-1.5-4.3-1.8-6.2-0.6c-2.7,1.7-2.7,5,0,6.6
		c1.7,1,3.4,1,5.2,0.3C123.7,522,124.6,521.7,124.5,520.3z M126.2,521.8c1.2,0.9,4.1,0.9,4.8,0.1c-1.3-0.9-1.3-0.9-1.3-2.8
		c0-2.3,0-4.6,0-6.9c0-0.4-0.3-1.2-0.6-1.2c-1-0.1-2,0.1-3,1.2c2,0.1,1.6,1.3,1.6,2.4c0,1.5,0,3.1,0,4.6
		C127.8,520.4,128,521.6,126.2,521.8z M132.4,511.7c-0.1,0.2-0.1,0.4-0.2,0.6c2,0,1.6,1.2,1.6,2.3c0,1.5,0,3,0,4.5
		c0,1.2,0.4,2.5-1.5,2.7c0.9,0.9,3.9,0.9,4.8,0.2c-1.4-1-1.4-1-1.4-3.1c0-2.2,0-4.5,0-6.7c0-0.4-0.4-1.2-0.6-1.2
		C134.2,511.1,133.3,511.4,132.4,511.7z M148.8,522c1.6,0.8,4.3,0.6,5.2-0.3c-2-0.1-1.7-1.5-1.7-2.7c0-0.1,0-0.2,0-0.3
		c0-2.3,0.9-3,3.2-2.5c0.4,0.1,1-0.3,1.5-0.5c-0.4-0.4-0.7-0.8-1.1-1.1c-0.3-0.2-0.8-0.1-1.1,0c-0.8,0.2-1.5,0.5-2.3,0.8
		c-0.7-0.7-2.2-0.9-3.1-0.3c-0.2,0.1-0.3,0.3-0.3,0.5s0.3,0.3,0.4,0.4c0.3,0.2,0.9,0.5,0.9,0.7C150.1,518.6,151.7,520.8,148.8,522z
		 M78,521.9c-1.8-0.5-1.3-1.9-1.3-3.1c0-0.6,0-1.3,0-1.9c0-2.3,0-2.3-2.3-1.9c-0.1,0-0.2,0-0.3,0c-0.2,0.1-0.5,0.3-0.7,0.5
		c0.2,0.2,0.4,0.4,0.5,0.6c0.2,0.2,0.7,0.5,0.6,0.7c-0.2,1.8,1.1,3.9-1.2,5.2C74.4,522.7,77.1,522.7,78,521.9z M76.9,512.3
		c0-0.2,0-0.3,0-0.5c-0.4-0.2-0.9-0.7-1.3-0.6c-0.4,0.1-0.7,0.6-1.1,0.9c0.4,0.3,0.7,0.9,1.1,0.9C76,513,76.5,512.5,76.9,512.3z"/>
	<path class="st15" d="M84.5,521.8c-1.5,0.9-4.3,0.9-5.2,0.1c2.6-1.1,1.1-3.3,1.4-5.1c0-0.2-0.6-0.5-0.8-0.8
		c-0.2-0.2-0.3-0.7-0.2-0.8c0.7-0.7,2.6-0.5,3.2,0.4c0.8-0.3,1.6-0.7,2.5-0.9c2.8-0.7,4.3,0.5,4.4,3.3c0,0.2,0,0.4,0,0.6
		c0.1,1.2-0.5,2.7,1.4,3.2c-1,0.8-3.8,0.8-4.8,0.1c2.5-1.2,1.1-3.4,1.3-5.2c0-0.2-0.2-0.5-0.4-0.6c-1.2-0.7-2.3-0.3-3.4,0.1
		c-0.9,0.4-1.3,0.9-1.2,1.9c0,0.3,0,0.5,0,0.8C82.7,520.2,82.2,521.7,84.5,521.8z"/>
	<path class="st15" d="M94,522.2c-1.5-1.3-1.5-1.3,0-2.8c-1.6-2.4-0.7-4.2,2.2-4.7c0.8-0.1,1.7,0.1,2.5,0.1s1.6-0.1,2.3,0
		c0.5,0,1,0.3,1.5,0.4c-0.4,0.2-0.8,0.5-1.1,0.7c-0.1,0.1-0.2,0.1-0.3,0.2c0.1,2.9-1.1,4-4.1,3.9c-0.8,0-1.5,0-2.3,0
		c0,0.2-0.1,0.3-0.1,0.5c0.4,0.1,0.8,0.4,1.2,0.4c1.4,0.2,2.7,0.4,4.1,0.6c0.3,0,0.6,0.1,0.9,0.2c0.9,0.3,1.9,0.7,2,1.9
		c0,1.2-0.9,1.7-1.9,2c-2.1,0.6-4.3,0.9-6.5,0.2c-0.7-0.2-1.5-0.8-1.8-1.4c-0.2-0.3,0.6-1.1,1-1.7C93.6,522.5,93.8,522.4,94,522.2z
		 M97.4,525.2c0.9-0.1,1.8-0.2,2.8-0.5c0.3-0.1,0.6-0.5,0.7-0.9c0.1-0.1-0.3-0.6-0.5-0.6c-1.6-0.3-3.2-0.6-4.8-0.6
		c-0.4,0-0.9,0.9-1.4,1.5c0.4,0.3,0.8,0.7,1.3,0.9C96.1,525.1,96.7,525.1,97.4,525.2z M97.1,519.1c1.3,0,2.3-0.7,2.3-1.7
		s-0.9-1.7-2.2-1.7s-2.2,0.7-2.2,1.7C95,518.3,95.8,519.1,97.1,519.1z"/>
	<path class="st15" d="M106,521.9c2.4-0.3,1.9-1.8,1.9-3.1c0-1.7,0-3.4,0-5.2c0-0.8-0.4-1.2-1.1-1.2c-1.2,0-2.1,0.4-2.8,1.3
		c-0.3,0.3-0.7,0.4-1.1,0.6c0-0.4-0.1-0.9,0-1.3c0.1-0.5,0.3-1,0.7-1.4c0.2-0.3,0.7-0.5,1-0.5c2.9,0,5.8,0,8.7,0
		c0.3,0,0.7,0.2,0.9,0.5c0.4,0.5,0.6,1.1,0.9,1.7c0.1,0.3,0,0.7-0.1,1c-0.3-0.1-0.8-0.1-1-0.4c-0.7-1-1.6-1.5-2.8-1.6
		c-0.9,0-1.3,0.2-1.3,1.2c0,2.2-0.1,4.4,0.1,6.6c0,0.7,0.7,1.3,1.2,1.9C110.6,522.7,107.6,522.8,106,521.9z"/>
	<path class="st15" d="M124.5,520.3c0.2,1.4-0.8,1.7-1.4,2c-1.7,0.7-3.5,0.7-5.2-0.3c-2.7-1.7-2.7-5,0-6.6c1.9-1.2,4.8-1,6.2,0.6
		c0.4,0.4,0.5,1.1,0.7,1.7c-0.5,0.2-1.1,0.5-1.6,0.5c-1.3,0.1-2.6,0-3.9,0c-1.2,0-1.6,0.5-1.1,1.7c0.7,1.7,3,2.4,4.8,1.4
		C123.4,520.9,123.8,520.6,124.5,520.3z M122.7,517c-0.3-1.3-1.3-1.3-2.1-1.3s-1.7,0-2,1.3C120,517,121.3,517,122.7,517z"/>
	<path class="st15" d="M126.2,521.8c1.8-0.3,1.6-1.5,1.6-2.6c0-1.5,0-3.1,0-4.6c0-1.1,0.3-2.3-1.6-2.4c1-1.1,2-1.3,3-1.2
		c0.2,0,0.6,0.8,0.6,1.2c0.1,2.3,0,4.6,0,6.9c0,1.8,0,1.8,1.3,2.8C130.3,522.7,127.4,522.8,126.2,521.8z"/>
	<path class="st15" d="M147.3,520.8c-0.2,0.3-0.4,0.7-0.7,0.9c-1.7,1.4-4.8,1.4-6.5,0c-2.2-1.7-2.1-4.9,0.3-6.4
		c2.2-1.4,5.4-0.9,6.6,0.9c0.2,0.4,0.4,1,0.3,1.4c-0.1,0.3-0.8,0.4-1.2,0.4c-1.5,0-2.9,0-4.4,0c-0.9,0-1.2,0.4-1,1.3
		c0.6,2,2.9,2.9,4.9,1.8c0.5-0.3,1-0.5,1.5-0.7C147.1,520.5,147.2,520.7,147.3,520.8z M145.4,517c-0.5-1.2-1.3-1.3-2.1-1.3
		c-0.9,0-1.8,0-2.2,1.3C142.5,517,143.8,517,145.4,517z"/>
	<path class="st15" d="M132.4,511.7c0.9-0.2,1.8-0.5,2.7-0.6c0.2,0,0.6,0.8,0.6,1.2c0.1,2.2,0,4.5,0,6.7c0,2.1,0,2.1,1.4,3.1
		c-0.9,0.8-3.8,0.7-4.8-0.2c1.9-0.2,1.5-1.6,1.5-2.7c0-1.5,0-3,0-4.5c0-1,0.4-2.3-1.6-2.3C132.3,512.1,132.3,511.9,132.4,511.7z"/>
	<path class="st15" d="M148.8,522c2.9-1.2,1.3-3.5,1.6-5.3c0-0.2-0.6-0.5-0.9-0.7c-0.2-0.1-0.4-0.2-0.4-0.4c0-0.1,0.2-0.4,0.3-0.5
		c0.9-0.6,2.4-0.4,3.1,0.3c0.8-0.3,1.5-0.6,2.3-0.8c0.4-0.1,0.8-0.2,1.1,0c0.4,0.2,0.7,0.7,1.1,1.1c-0.5,0.2-1,0.6-1.5,0.5
		c-2.3-0.5-3.2,0.2-3.2,2.5c0,0.1,0,0.2,0,0.3c0,1.2-0.3,2.6,1.7,2.7C153.1,522.7,150.4,522.8,148.8,522z"/>
	<path class="st15" d="M78,521.9c-0.9,0.8-3.6,0.8-4.6,0.1c2.3-1.3,1-3.4,1.2-5.2c0-0.2-0.4-0.5-0.6-0.7c-0.2-0.2-0.4-0.4-0.5-0.6
		c0.2-0.2,0.5-0.3,0.7-0.5c0.1,0,0.2,0,0.3,0c2.3-0.5,2.3-0.5,2.3,1.9c0,0.6,0,1.3,0,1.9C76.7,520,76.2,521.4,78,521.9z"/>
	<path class="st15" d="M76.9,512.3c-0.4,0.3-0.8,0.8-1.2,0.7c-0.4,0-0.8-0.6-1.1-0.9c0.4-0.3,0.7-0.9,1.1-0.9
		c0.4-0.1,0.8,0.4,1.3,0.6C76.9,512,76.9,512.1,76.9,512.3z"/>
	<path class="st16" d="M93.2,477.7c0,2.7,0,5.4,0,8.1c0,0.7,0.2,1,1,1.1s1.5,0.6,2.3,0.9c0.7,0.3,1.4,0.8,2,0.7c1-0.1,1.8-0.9,1.8-2
		c0.1-1.5,0.1-3,0.1-4.5c0-0.5-0.1-1.1,0.2-1.5c0.3-0.6,1-1,1.5-1.4c0.4,0.5,1.2,1,1.3,1.6c0.3,2.2,0.2,4.4,0.4,6.7
		c0.1,1.3-0.4,2.3-1.1,3.3c-1.8,2.5-5,2.3-7.3,1c-0.4-0.2-0.7-0.5-1-0.8c-0.6-0.3-1-0.3-1,0.5c0,2.1,0.1,4.1,0.1,6.2
		s-0.1,4.2-0.4,6.3c-0.1,0.6-0.9,1-1.3,1.5c-0.5-0.4-1.2-0.8-1.3-1.3c-0.4-1.8-0.5-3.7-0.7-5.6c0-0.3,0.1-0.6,0.1-0.9
		c-0.2-8.5-0.4-17-0.7-25.6c0-0.6-0.2-1.3-0.3-1.9c-0.1-1.2,0.1-2.2,1.2-2.9c1-0.7,1.9-0.3,2.8,0.3c0.4,0.2,0.9,0.2,1.4,0.1
		c1.7-0.1,3.4-0.4,5.1-0.3c1.2,0.1,2.3,0.8,3.4,1.3c0.3,0.2,0.7,0.7,0.7,1.1c-0.2,2.3-0.4,4.5-0.7,6.7c-0.1,0.8-0.8,1.5-1.6,1.2
		c-0.6-0.2-1.1-0.9-1.3-1.5c-0.3-1.1-0.2-2.2-0.3-3.3c-0.1-1.3-0.9-2-2.1-2c-1.1,0-2.3,0.4-3.4,0.7c-0.3,0.1-0.6,0.7-0.6,1
		c-0.2,1.7-0.3,3.4-0.5,5.1C93,477.7,93.1,477.7,93.2,477.7z"/>
	<path class="st16" d="M154.7,469.6c-0.6,2.6-1.2,6.1-2.1,9.6c-0.5,1.9-1.9,2.9-4,2.9c-1.9,0-3.7,0.6-5.6,0.9
		c-1.1,0.2-2.2,0.4-3.3,0.6c-0.8,0.2-1.6,0.5-1.7,1.5c-0.3,2.1-0.8,4.2-1.1,6.3c-0.1,0.9,0,1.9,0.1,2.8s0.4,1.9,0.3,2.8
		c0,3.6,2.2,3.8,4.8,2.8c1.4-0.5,2.6-1.4,3.9-1.9c0.5-0.2,1.2-0.1,1.8-0.2c0,0.5,0.1,1.1,0,1.6c-0.1,0.4-0.3,0.9-0.6,1.3
		c-2.8,3-6.1,4.5-10.3,4.1c-3.4-0.4-3.7-2.4-3.5-5.1c0.1-1.1,0.4-2.3,0.7-3.4c0.4-1.6,0.6-3.1,0.2-4.8c-0.9-4.1-0.3-8.3,0.2-12.4
		s0.6-8.1-0.7-12.1c-0.3-0.8-0.1-1.9,0.2-2.7c0.5-1.3,1.7-1.8,2.8-0.9c1.8,1.4,3.7,0.8,5.6,0.5c2.3-0.4,4.6-0.9,6.9-1.2
		c0.7-0.1,1.6,0.3,2.2,0.8C153.4,464.6,154.6,466.3,154.7,469.6z M142.8,480.1c1.4-0.2,2.3-0.4,3.3-0.5c1.8-0.2,3.2-1.5,3.5-3.3
		c0.3-1.9,0.5-3.9,0.8-5.8c0.5-2.6-1-4.5-3.6-4.2c-2.4,0.3-4.7,1.1-7,1.7c-1.2,0.3-1.8,1.6-1.5,3c0.3,1.3,1.3,0.9,2.2,0.8
		c0.3,0,0.6-0.1,0.9-0.1c1.3-0.2,2.5-0.4,3.8-0.5c1-0.1,1.7,0.5,1.8,1.5c0.2,1-0.5,1.6-1.3,2c-0.3,0.2-0.7,0.2-1.1,0.2
		c-1.8,0.3-3.5,0.7-5.3,0.9c-1.5,0.2-1.3,1.3-1.3,2.3c0,1.1,0.4,1.8,1.5,1.8C140.7,480.1,142,480.1,142.8,480.1z"/>
	<path class="st16" d="M83.3,480.1c-2.7-0.6-3.8,0.6-3.5,3.4c0.1,1.1,0.8,1.6,1.9,1.1c0.7-0.3,1.4-0.8,2.2-1
		c0.9-0.2,1.9-0.4,2.7-0.2c0.6,0.2,1.3,1,1.3,1.6c0.1,0.9-0.5,1.6-1.5,1.8c-1.4,0.2-2.8,0.4-4.2,0.6c-1.5,0.2-2.4,1.2-2.4,2.7
		c0,1,0,2,0,3c0,1.2,0.6,1.8,1.9,1.7c0.8-0.1,1.7-0.3,2.5-0.5c0.3-0.1,0.7-0.1,1-0.1c0.9,0,2.1-0.1,2.2,1c0.1,0.6-0.7,1.5-1.4,1.9
		c-0.9,0.5-2.1,0.8-3.2,0.9c-3.5,0.1-6.8,0.9-9.7,2.9c-0.5,0.4-1.5,0.2-2.2,0c-0.5-0.1-0.9-0.7-1.3-1c-0.6-0.5-0.9-1.2-0.4-1.9
		c0.9-1.5,1-3.1,0.8-4.8c-0.2-1.7-0.1-3.5-0.1-5.3c0-0.9,0.4-1.6,1.3-1.6c0.6,0,1.5,0.5,1.7,1c0.4,1.1,0.5,2.3,0.5,3.5
		c0,1.1-0.2,2.2-0.2,3.3c0.1,1.5,0.9,2.2,2.1,1.9c1.3-0.2,1.8-1.3,1.7-2.6c-0.2-2.5-0.3-5-0.4-7.4c0-0.9,0-1.7-0.1-2.6
		c-0.2-1.5-0.9-2.2-2.5-2.1c-1,0.1-2.1,0.2-3.1,0.2c-0.4,0-0.9,0-1.2-0.2c-0.5-0.4-1.1-0.9-1.1-1.5c0-0.4,0.7-1.1,1.2-1.2
		c1.5-0.4,3-0.7,4.5-0.9c1.4-0.2,1.8-0.6,1.7-2c0-0.3-0.1-0.5-0.1-0.8c0-1.5,0.6-2.4,1.8-2.5c1.3-0.1,2.3,1,2.3,2.4
		c0.1,2,0.1,2,2,1.7c1.1-0.2,2.1-0.2,3.2-0.1c0.9,0.1,1.7,0.6,1.7,1.6c0,1.1-0.6,1.8-1.7,2C84.7,480.1,83.9,480,83.3,480.1z"/>
	<path class="st16" d="M159.3,483.3c-0.2,2.5-1.3,3.7-2.9,4.7c-1.6,0.9-3.1,1.8-4.6,2.8c-0.8,0.6-0.6,1.3-0.1,2
		c1.5,1.9,3.7,2.8,5.7,4c0.8,0.4,1.6,0.9,2.2,1.5c1,1,1.1,2.3,0.4,3.2c-0.8,1-2.3,1.5-3.5,0.7c-2.1-1.3-4.4-2.3-5.8-4.5
		c-0.8-1.3-1.8-2.5-2.9-3.4c-0.6-0.5-1.8-0.2-2.7-0.3c-0.9,0-1.8,0-2.7-0.1c-0.3,0-0.7-0.5-0.7-0.7c0-0.3,0.3-0.9,0.6-1
		c2.6-0.6,2.8-2.3,2.3-4.5c-0.2-0.7-0.3-1.5-0.2-2.2c0.1-0.6,0.5-1.1,0.8-1.7c0.4,0.4,1,0.6,1.3,1.1c0.5,0.8,0.7,1.6,1.1,2.5
		c0.6,1.1,1.4,1.3,2.4,0.4c0.6-0.5,1.2-0.8,1.7-1.3c0.8-0.8,1.6-1.7,2.4-2.7c0.4-0.5,0.7-1.2,1.2-1.7c0.7-0.9,1.8-1.1,2.7-0.5
		C158.6,482.1,159,483,159.3,483.3z"/>
	<path class="st16" d="M65.7,486.2c-0.4,1.9-0.8,3.7-1.3,5.6c-0.1,0.3-0.3,0.7-0.3,1c0,3.1-1.8,5.3-3.4,7.6c-0.7,1-1.6,1.5-2.8,1.5
		c-1.4,0-2.2-1.1-1.8-2.4c0.2-0.7,0.6-1.3,1.1-1.9c3.4-3.7,5.2-8.1,5.7-13.1c0.1-0.9,0-1.7-0.8-2.3c-1.4-1.1-2.5-0.9-3.3,0.7
		c-0.4,0.7-0.7,1.5-1.3,2c-0.5,0.4-1.5,0.5-2.1,0.3c-0.9-0.3-1-1.2-0.9-2c0.6-2.9,2.3-5,4.6-6.7c1.1-0.8,2.1-1.7,3.3-2.2
		c1.3-0.5,2.8-0.7,4.2-0.7c0.9,0,1.3,1.2,0.7,2c-0.3,0.4-0.7,0.8-1.1,1.1c-2.1,1-2.2,2.4-1.8,4.8c0.1,0.8,0.5,1.5,0.7,2.3
		s0.2,1.6,0.3,2.4C65.6,486.1,65.7,486.1,65.7,486.2z"/>
	<path class="st16" d="M122.2,460.3c1.7-0.1,2.8,0.8,3.9,2.1c1.2,1.3,2.7,2.3,4.1,3.5c0.3,0.2,0.6,0.3,0.9,0.6
		c1.1,0.9,1.3,2.2,0.5,3.1s-2,0.8-3.1-0.2c-1.2-1.1-2.4-2.3-3.8-3.2c-1.6-1.1-2.9-0.8-3.9,0.9c-0.7,1.2-1.2,2.5-1.8,3.7
		c-0.9,1.7-1.9,3.4-2.9,5c-0.7,1.1-1.5,2.1-2.2,3.1c-0.2,0.2-0.4,0.4-0.7,0.6c-1,0.6-2.6,0.6-3.2-0.2c-0.8-1-0.6-2.1,0.1-3
		c0.9-1.2,2.1-2.2,3.1-3.2c1.7-1.6,2.8-3.6,3.7-5.8c0.7-1.9,1.7-3.7,2.8-5.4c0.5-0.8,1.5-1.2,2.3-1.8
		C122.1,460,122.1,460.1,122.2,460.3z"/>
	<path class="st16" d="M128.2,483.6c-2-0.9-3.4,0.5-4.8,2c-0.5,0.5-0.9,0.5-1.3-0.1c-1.4-1.8-1.4-1.8-3.6-1
		c-0.8,0.3-1.7,0.5-2.5,0.4c-0.6,0-1.5-0.4-1.6-0.9c-0.2-0.6,0-1.7,0.4-2.1c0.8-0.6,2-0.9,3-1.2c0.8-0.2,1.7-0.1,2.4-0.5
		c1.8-1,1.5-3.7-0.2-4.7c-0.5-0.3-1-1.2-1-1.9c0-0.9,0.7-1.7,1.7-1.8c1.7-0.2,3.5-0.3,5.2-0.5c1.1-0.1,2.2,0.8,2.3,1.8
		s-0.5,1.7-1.8,1.9c-0.8,0.1-1.2,0.5-1.2,1.2c0,0.1,0,0.2,0,0.3c-0.5,3.2-0.4,3.3,2.8,3.3c0.3,0,0.6,0,0.9,0.1
		c1.3,0.3,2.2,1.3,2.1,2.2C130.9,483.1,130,483.6,128.2,483.6z"/>
	<path class="st16" d="M120.4,493.7c0.3-1.8,0.6-3.5,0.9-5.3c0.1-0.4,0.4-0.9,0.7-1.2c0.7-0.7,1.6-0.5,1.7,0.5
		c0.3,1.9,0.6,3.9,0.5,5.9c-0.2,2.9,0.8,4.1,3.7,3.8c0.5-0.1,1.1-0.1,1.7,0.1c0.8,0.2,1.5,0.7,1.5,1.7s-0.6,1.6-1.5,1.9
		c-0.5,0.2-1.1,0.1-1.7,0.1c-2.1,0.1-4.2,0-6.3,0.4c-1.6,0.3-3.2,1.2-4.7,1.9c-0.9,0.4-1.7,0.9-2.7,1.1c-1.5,0.3-2.6-0.3-2.9-1.3
		c-0.3-1.3,0.5-2.8,1.9-3.2c1.4-0.4,2.8-0.7,4.2-1.2C120.3,497.7,120.8,496.8,120.4,493.7z"/>
	<path class="st16" d="M83.3,470.2c-0.1,0-0.2,0-0.3,0c-2.7-0.7-5.1,0-7.5,1.2c-2,1-4.2,0.4-5.5-1.3c-0.4-0.6-0.5-1.8-0.2-2.5
		c0.8-1.7,1.6-3.4,1.6-5.4c0-0.5,0.6-1.1,1-1.3c0.5-0.2,1.3,0,1.8,0.3c1.1,0.8,1.2,2,0.7,3.3c-0.3,0.7-0.5,1.9-0.2,2.2
		c0.6,0.5,1.6,0.6,2.4,0.5c1.4-0.2,2.8-0.7,4.3-0.9c0.8-0.1,1.6-0.1,2.4,0.1c1.1,0.2,2.1,1.6,1.9,2.4
		C85.6,469.8,84.7,470.2,83.3,470.2z"/>
	<path class="st16" d="M67.4,464.4c-0.6,0.8-1.2,1.8-2,2.5c-0.6,0.5-1.5,0.7-2.2,1.1c-1.5,0.9-2.9,1.8-4.5,2.7
		c-0.7,0.4-1.5,0.8-2.2,0.9c-0.4,0.1-1.1-0.4-1.3-0.7c-0.2-0.3,0-1,0.2-1.4s0.6-0.8,1-1.2c2-1.8,4.1-3.6,6.2-5.3
		c0.6-0.5,1.6-0.7,2.4-0.7C66.2,462.1,67.1,463.1,67.4,464.4z"/>
	<path class="st16" d="M117.3,493.6c0,0.1,0,0.3,0,0.4c0.1,1,0,2.3-1.1,2.4c-0.6,0.1-1.7-0.9-2-1.6c-0.6-1.6-0.8-3.4-1-5.1
		c-0.1-1,0.5-1.7,1.5-1.8c0.9-0.1,1.7,0.4,1.9,1.4c0.4,1.4,0.6,2.9,1,4.4C117.4,493.6,117.3,493.6,117.3,493.6z"/>
	<path class="st16" d="M126.6,491.7c0.5-1.4,0.9-2.7,1.5-3.9c0.4-0.8,1.2-1.2,2.1-0.8c0.9,0.4,1.3,1.2,1,2.1
		c-0.3,1.1-0.8,2.2-1.3,3.3c-0.4,0.9-1,1.8-2,1.4C127.3,493.5,127.1,492.4,126.6,491.7z"/>
	<path class="st10" d="M97.4,525.2c-0.7-0.1-1.3-0.1-1.8-0.3s-0.9-0.6-1.3-0.9c0.5-0.5,0.9-1.5,1.4-1.5c1.6,0,3.2,0.4,4.8,0.6
		c0.2,0,0.5,0.5,0.5,0.6c-0.2,0.4-0.4,0.8-0.7,0.9C99.2,524.9,98.2,525,97.4,525.2z"/>
	<path class="st10" d="M97.1,519.1c-1.3,0-2.1-0.8-2.1-1.8s1-1.7,2.2-1.7c1.3,0,2.2,0.7,2.2,1.7C99.4,518.3,98.4,519.1,97.1,519.1z"
		/>
	<path class="st10" d="M145.4,517c-1.6,0-2.9,0-4.3,0c0.4-1.3,1.4-1.2,2.2-1.3C144.1,515.7,144.9,515.8,145.4,517z"/>
	<path class="st10" d="M122.7,517c-1.4,0-2.7,0-4.1,0c0.3-1.3,1.2-1.2,2-1.3C121.4,515.7,122.4,515.6,122.7,517z"/>
	<path class="st15" d="M142.8,480.1c-0.9,0-2.1,0-3.3,0c-1.1,0-1.5-0.7-1.5-1.8c0-1-0.1-2.1,1.3-2.3c1.8-0.3,3.5-0.6,5.3-0.9
		c0.4-0.1,0.8-0.1,1.1-0.2c0.8-0.4,1.5-0.9,1.3-2c-0.2-1-0.9-1.5-1.8-1.5c-1.3,0.1-2.5,0.3-3.8,0.5c-0.3,0-0.6,0.1-0.9,0.1
		c-0.9,0-1.9,0.5-2.2-0.8c-0.3-1.4,0.3-2.7,1.5-3c2.3-0.6,4.6-1.4,7-1.7c2.6-0.4,4.1,1.5,3.6,4.2c-0.3,1.9-0.5,3.9-0.8,5.8
		c-0.3,1.8-1.6,3-3.5,3.3C145.1,479.7,144.2,479.9,142.8,480.1z"/>
	<g id="wBKlBO_1_" class="st10">
	</g>
	<path class="st10" d="M519.5-152.8c0.6-1.3,1-2.7,1.7-4c3.4-6,6.8-12,10.2-18.1c-0.2-0.1-0.5-0.3-0.7-0.4c-5,8.2-10,16.4-15,24.6
		c-0.3-0.2-0.6-0.3-0.9-0.5c3.8-6.4,7.5-12.8,11.3-19.1c-0.3-0.2-0.6-0.3-0.8-0.5c-6.6,10.7-13.2,21.4-19.8,32.1
		c-0.2-0.1-0.5-0.3-0.7-0.4c2.6-4.3,5.2-8.7,8.3-13.7c-4.3,0-7.8-0.1-11.3,0.1c-0.6,0-1.4,1-1.8,1.7c-4.3,7.3-8.5,14.6-12.8,22
		c-2.4,4.1-4.6,8.4-7.1,12.5c-0.6,0.9-1.9,2-2.9,2c-8.4,0.2-16.8,0.1-26.2,0.1c1.7-3.3,3.1-6.1,4.7-8.9c2.9-5.1,5.9-10.2,8.9-15.2
		c5.9-10.1,11.9-20.1,17.7-30.2c3.9-6.6,7.5-13.4,11.4-20c0.4-0.8,1.6-1.6,2.4-1.6c8.7-0.1,17.4-0.1,26.3-0.1
		c-5.4,9.4-10.7,18.6-16.4,28.6c4.2,0,7.8,0.1,11.4-0.1c0.7,0,1.4-1.3,1.9-2.2c4.4-7.5,8.8-14.9,13.1-22.5c1.6-2.8,3.4-4.1,6.8-3.9
		c7.6,0.3,15.2,0.1,23.3,0.1c-10.5,18.3-20.8,36.4-31.1,54.5c-0.2-0.1-0.4-0.2-0.6-0.3c5.3-9.7,10.5-19.5,15.8-29.2
		c-0.3-0.2-0.6-0.4-0.9-0.5c-5.7,9.8-11.4,19.7-17.2,29.5c-0.2-0.1-0.4-0.2-0.6-0.3c6.2-11.2,12.3-22.4,18.5-33.6
		c-0.3-0.2-0.5-0.3-0.8-0.5c-6.3,10.8-12.7,21.5-19,32.3c-0.2-0.1-0.4-0.2-0.6-0.3c5.1-9.3,10.2-18.6,15.3-27.8
		c-0.3-0.2-0.6-0.3-0.9-0.5c-4.8,8.2-9.6,16.3-14.4,24.5c-0.2-0.1-0.5-0.3-0.7-0.4c5.3-9.5,10.5-18.9,15.8-28.4
		c-0.3-0.2-0.5-0.3-0.8-0.5c-6.6,11.2-13.2,22.5-19.8,33.7c-0.2-0.1-0.4-0.2-0.6-0.4c5.6-10.1,11.3-20.2,16.9-30.2
		c-0.3-0.2-0.5-0.3-0.8-0.5c-6.6,10.9-13.2,21.9-19.8,32.8c-0.2-0.1-0.4-0.2-0.5-0.3c6.9-12.1,13.8-24.2,20.7-36.3
		c-0.2-0.1-0.5-0.3-0.7-0.4c-6.6,10.9-13.2,21.8-19.8,32.7c-0.2-0.1-0.4-0.2-0.6-0.3c6.6-11.6,13.2-23.2,19.8-34.7
		c-0.2-0.1-0.5-0.3-0.7-0.4c-3,5.1-6,10.2-9.1,15.2C523.4-158.2,521.4-155.6,519.5-152.8C519.5-152.9,519.5-152.8,519.5-152.8z"/>
	<path class="st10" d="M403.4-114.4c4.2-7.3,8.1-14.2,12.1-21.1c3.1-5.4,6.3-10.9,9.3-16.3c0.5-0.9,0.4-2.1,0.4-3.2
		c0-10.5,0-21,0-31.5c0-1.1,0-2.2,0-3.5c9.3,0,18.5,0,27.9,0c0,4.3,0,8.5,0,12.7c0,6.7-0.2,13.4,0.1,20.1c0.1,4.3-1.4,7.8-3.6,11.4
		c-3.4,5.4-6.3,11.1-9.5,16.6c-2.7,4.6-5.4,9.1-8.2,13.6c-0.4,0.6-1.4,1.3-2.1,1.3C421.1-114.4,412.5-114.4,403.4-114.4z"/>
	<path class="st10" d="M481.3-190.2c-4.9,8.6-9.9,17.2-14.8,25.8c-0.3-0.2-0.6-0.3-0.9-0.5c4.9-8.6,9.8-17.3,14.8-25.9
		C480.7-190.6,481-190.4,481.3-190.2z"/>
	<path class="st10" d="M465.5-169.5c4-7,8-14.1,12-21.1c0.3,0.2,0.6,0.3,0.9,0.5c-4,7-7.9,14.1-11.9,21.1
		C466.1-169.2,465.8-169.3,465.5-169.5z"/>
	<path class="st10" d="M482.9-187.5c-3.4,5.6-6.7,11.2-10.1,16.9c-0.3-0.2-0.6-0.3-0.8-0.5c3.3-5.7,6.6-11.3,9.9-17
		C482.2-187.9,482.5-187.7,482.9-187.5z"/>
	<path class="st10" d="M483.1-182c-1.7,2.2-3.4,4.5-5.1,6.7c-0.1-0.1-0.3-0.2-0.4-0.3c2.8-5,5.6-10,8.5-15.1
		c0.2,0.1,0.3,0.2,0.5,0.3C485.4-187.6,484.2-184.8,483.1-182L483.1-182z"/>
	<path class="st10" d="M465.5-174.8c2.3-3.9,4.6-7.7,6.9-11.6c0.3,0.1,0.5,0.3,0.8,0.4c-2.2,3.9-4.5,7.7-6.7,11.6
		C466.2-174.5,465.8-174.6,465.5-174.8z"/>
	<path class="st10" d="M465.5-179.6c2.1-3.6,4.1-7.2,6.2-10.8c0.3,0.2,0.6,0.3,0.9,0.5c-2,3.6-4,7.1-6,10.7
		C466.2-179.3,465.9-179.4,465.5-179.6z"/>
	<path class="st10" d="M505.1-134.4c2.9-4.8,5.9-9.6,8.8-14.4c0.2,0.1,0.5,0.3,0.7,0.4c-3,4.8-6,9.5-9,14.3
		C505.4-134.1,505.3-134.3,505.1-134.4z"/>
	<path class="st10" d="M483-181.9c1-1.4,2.1-2.7,3.1-4.1c1.1-1.5,2.1-3,3.1-4.5c0.3,0.2,0.6,0.5,1,0.7c-2.1,2.7-4.2,5.5-6.3,8.2
		C483.8-181.7,483.4-181.9,483-181.9C483.1-182,483-181.9,483-181.9z"/>
	<path class="st10" d="M519.5-152.8C519.5-152.8,519.5-152.9,519.5-152.8c-1.4,2.6-2.8,5.3-4.1,8c-0.3-0.2-0.7-0.4-1-0.6
		C516.1-147.9,517.8-150.4,519.5-152.8z"/>
	<path class="st10" d="M469.9-190c-1.2,2-2.4,4-3.7,6c-0.3-0.2-0.5-0.3-0.8-0.5c1.2-2,2.5-4,3.7-6
		C469.4-190.4,469.7-190.2,469.9-190z"/>
</g>
<g id="phone" class="st2">
	<g class="st4">
		<path class="st17" d="M266,246.1c0,2.5-0.8,4.7-1.9,6.9c-1.1,2.1-2.5,3.9-4.4,5.4c-1.1,0.9-2.4,1.6-3.8,1.9
			c-2,0.5-3.8-0.2-4.9-1.9c-0.5-0.7-0.5-1.5-0.2-2.2c0.5-1.3,1.4-2.2,2.6-2.9c0.7-0.4,1.4-0.7,2.3-0.8c0.6,0,1.2,0.1,1.6,0.6
			c0.2,0.2,0.4,0.2,0.6,0c0.9-1.2,1.7-2.5,2.3-3.9c0-0.1,0.1-0.2,0.1-0.3s-0.1-0.2-0.2-0.2c-0.8-0.1-1.3-0.6-1.6-1.3
			c-0.5-1.3-0.5-2.6-0.1-3.8c0.3-1,0.7-1.9,1.5-2.5c0.4-0.3,0.9-0.5,1.4-0.4c0.5,0,1,0,1.5,0.2c1.6,0.4,2.5,1.6,3,3.1
			C265.9,244.5,266,245.3,266,246.1z M264.9,246.3c0-1-0.1-1.9-0.5-2.7c-0.3-0.7-0.7-1.2-1.4-1.6c-0.6-0.3-1.2-0.4-1.8-0.4
			c-0.3,0-0.6,0.1-0.8,0.3c-0.2,0.2-0.3,0.4-0.5,0.6c-0.6,1-0.8,2.1-0.7,3.2c0,0.5,0.1,1.1,0.5,1.5c0.1,0.2,0.3,0.3,0.5,0.3
			c1,0.2,1.5,1,1.1,1.9c-0.6,1.6-1.5,3.1-2.6,4.4c-0.5,0.7-1.6,0.7-2.2,0c-0.2-0.3-0.5-0.3-0.8-0.3c-0.3,0-0.6,0.1-0.9,0.2
			c-1.1,0.4-1.9,1.1-2.6,2.1c-0.2,0.3-0.3,0.6-0.4,0.9c-0.1,0.2-0.1,0.5,0,0.7c0.6,1.1,1.4,1.8,2.8,1.8c1.2,0,2.2-0.4,3.2-1
			c1.4-0.8,2.6-2,3.6-3.2C263.4,252.5,264.7,249.5,264.9,246.3z"/>
		<path class="st17" d="M249,248.9c0-2.8,2.1-5.3,4.9-5.8c0.4-0.1,0.7,0.1,0.8,0.4c0.1,0.4-0.1,0.6-0.6,0.7c-2,0.5-3.3,1.7-3.8,3.6
			c-0.2,0.6-0.2,1.3-0.1,1.9c0.1,0.4-0.1,0.7-0.5,0.7c-0.3,0.1-0.6-0.2-0.7-0.6C249.1,249.5,249,249.2,249,248.9z"/>
		<path class="st17" d="M251.3,248.8c0-1.6,1.1-3.1,2.7-3.4c0.1,0,0.3,0,0.4,0c0.3,0,0.4,0.2,0.4,0.5s-0.1,0.4-0.3,0.6
			c-0.1,0-0.2,0.1-0.3,0.1c-1.2,0.3-2,1.4-1.8,2.6c0.1,0.4-0.1,0.7-0.5,0.7c-0.3,0.1-0.6-0.2-0.7-0.6
			C251.3,249,251.3,248.9,251.3,248.8z"/>
		<path class="st17" d="M253.3,249c0-0.9,0.6-1.7,1.5-1.9c0.4-0.1,0.7,0,0.8,0.3c0.1,0.3-0.1,0.6-0.5,0.7c-0.5,0.2-0.7,0.5-0.7,1
			c0,0.3-0.2,0.6-0.5,0.6s-0.6-0.2-0.7-0.5C253.3,249.2,253.3,249.1,253.3,249z"/>
	</g>
</g>
<g id="图层_10" class="st2">
	<g class="st4">
		<g>
			<defs>
				<rect id="SVGID_10_" x="252.9" y="244.5" width="8" height="12"/>
			</defs>
			<clipPath id="SVGID_11_">
				<use xlink:href="#SVGID_10_"  style="overflow:visible;"/>
			</clipPath>
			<line class="st18" x1="254.4" y1="246" x2="258.9" y2="250.5"/>
		</g>
		<g>
			<defs>
				<rect id="SVGID_12_" x="252.9" y="244.5" width="8" height="12"/>
			</defs>
			<clipPath id="SVGID_13_">
				<use xlink:href="#SVGID_12_"  style="overflow:visible;"/>
			</clipPath>
			<line class="st19" x1="254.4" y1="255" x2="258.9" y2="250.5"/>
		</g>
	</g>
</g>
<g>
	<path class="st20" d="M58.9,8c8,0,15.9,6.7,17.4,15.9c0.7,4.1,0.1,8-1.8,11.7c-0.4,0.7-1,1-1.7,0.7c-0.6-0.3-0.8-1-0.5-1.7
		c1.1-2.4,1.8-4.8,1.8-7.5c-0.1-5.7-2.4-10.3-7-13.6c-3.2-2.3-6.8-3.3-10.8-3C48.9,10.8,42.1,16.7,41,25c-1,7.1,2.9,14.2,9.6,17.2
		c5.7,2.6,11.2,2,16.5-1.4c0.5-0.3,0.9-0.5,1.5-0.2c0.8,0.4,0.9,1.5,0.1,2c-1,0.7-2,1.3-3,1.8c-11.4,5.2-24.4-1.5-26.8-13.9
		c-1.6-8.5,2.8-17,10.6-20.7C52,8.6,54.7,8,58.9,8z"/>
	<path class="st20" d="M57,30.1c0-0.5,0-1,0-1.5c0-1,0.4-1.8,1.2-2.4c0.5-0.4,1.1-0.7,1.7-1c0.5-0.3,1.1-0.6,1.6-0.9
		c1.7-1.2,1.9-3.5,0.6-5c-0.9-1.1-2.1-1.5-3.5-1.7c-1.7-0.2-3.3,0.1-4.6,1.2c-1.1,0.9-1.8,2.1-1.6,3.7c0.1,0.7-0.4,1.3-1,1.3
		c-0.7,0.1-1.3-0.4-1.3-1.2c-0.2-2.1,0.5-3.9,2.1-5.3c1.8-1.7,4-2.3,6.4-2.1c2.1,0.2,3.9,0.9,5.4,2.5c1.9,2.1,2.4,6.3-1,8.5
		c-0.8,0.5-1.7,1-2.6,1.4c-0.7,0.3-1,0.8-0.9,1.5c0.1,0.8,0,1.7,0,2.5c0,0.8-0.5,1.3-1.2,1.3c-0.7,0-1.2-0.5-1.2-1.3
		C57,31.2,57,30.6,57,30.1z"/>
	<path class="st20" d="M59.7,36.7c0,0.8-0.7,1.5-1.5,1.5c-0.8,0-1.5-0.7-1.5-1.5c0-0.8,0.7-1.4,1.5-1.5C59,35.3,59.7,35.9,59.7,36.7
		z"/>
</g>
</svg>
