<?xml version="1.0" encoding="utf-8"?>
<!-- Generator: Adobe Illustrator 19.0.0, SVG Export Plug-In . SVG Version: 6.00 Build 0)  -->
<svg version="1.1" id="图层_1" xmlns="http://www.w3.org/2000/svg" xmlns:xlink="http://www.w3.org/1999/xlink" x="0px" y="0px"
	 viewBox="0 0 16 16" style="enable-background:new 0 0 16 16;" xml:space="preserve">
<style type="text/css">
	.st0{clip-path:url(#XMLID_10_);}
	.st1{clip-path:url(#XMLID_11_);fill:#C8C8C8;}
</style>
<g id="XMLID_2_">
	<defs>
		<path id="XMLID_3_" d="M5,9.8C5,9.8,5,9.7,4.9,9.7c-0.7-0.7-1-1.6-1-2.6c0-1.2,0-2.4,0-3.6C4,1.8,5.4,0.3,7.1,0.1
			c2.1-0.3,3.9,0.9,4.4,2.9c0.1,0.3,0.1,0.6,0.1,0.8c0,1.2,0,2.3,0,3.5c0,0.8-0.3,1.6-0.9,2.2c0,0-0.1,0.1-0.1,0.2
			c0.3,0.1,0.5,0.1,0.7,0.2c1.3,0.3,2.4,0.9,3.4,1.7c0.3,0.2,0.5,0.5,0.8,0.8c0.4,0.5,0.5,1.1,0.4,1.7c0,0.4-0.3,0.7-0.6,0.8
			c-0.6,0.2-1.3,0.5-1.9,0.6C11.7,15.9,9.9,16,8.1,16c-1.9,0-3.8-0.1-5.7-0.6c-0.6-0.1-1.1-0.3-1.6-0.5C0.1,14.6,0,14.3,0,13.7
			c0-0.8,0.4-1.4,1-1.9c0.9-0.8,2-1.3,3.1-1.7C4.4,10,4.7,9.9,5,9.8 M8,15c1.7,0,3.3-0.1,4.9-0.4c0.6-0.1,1.3-0.4,1.9-0.6
			c0.1,0,0.2-0.1,0.2-0.2c0-0.4-0.1-0.7-0.4-1c-0.2-0.2-0.4-0.4-0.6-0.6c-1.3-0.9-2.7-1.4-4.3-1.7c-0.1,0-0.3,0-0.4,0.1
			c-1,0.4-2,0.4-3,0c-0.1,0-0.3-0.1-0.4,0c-1.1,0.2-2.1,0.5-3,1c-0.6,0.3-1.1,0.7-1.5,1.2C1.2,13.1,1,13.4,1,13.7
			c0,0.2,0,0.3,0.2,0.3c0.5,0.2,0.9,0.3,1.4,0.5C4.4,14.9,6.2,15,8,15 M10.6,5.5C10.6,5.5,10.6,5.5,10.6,5.5c0-0.5,0.1-1,0-1.4
			c0-0.4-0.1-0.9-0.2-1.3c-0.6-1.6-2.5-2.3-4-1.4C5.4,2,5,2.9,4.9,3.9c0,1,0,2.1,0,3.1C5,7.4,5,7.8,5.2,8.1c0.5,1.4,2.1,2.2,3.5,1.7
			c1.1-0.4,1.7-1.2,1.9-2.3C10.7,6.8,10.6,6.1,10.6,5.5"/>
	</defs>
	<clipPath id="XMLID_10_">
		<use xlink:href="#XMLID_3_"  style="overflow:visible;"/>
	</clipPath>
	<g id="XMLID_7_" class="st0">
		<defs>
			<rect id="XMLID_8_" x="-21" y="-89" width="375" height="667"/>
		</defs>
		<clipPath id="XMLID_11_">
			<use xlink:href="#XMLID_8_"  style="overflow:visible;"/>
		</clipPath>
		<rect id="XMLID_9_" x="-5" y="-5" class="st1" width="26" height="26"/>
	</g>
</g>
</svg>
