<?xml version="1.0" encoding="utf-8"?>
<!-- Generator: Adobe Illustrator 19.0.0, SVG Export Plug-In . SVG Version: 6.00 Build 0)  -->
<svg version="1.1" xmlns="http://www.w3.org/2000/svg" xmlns:xlink="http://www.w3.org/1999/xlink" x="0px" y="0px"
	 viewBox="281.1 249.9 17 17" style="enable-background:new 281.1 249.9 17 17;" xml:space="preserve">
<style type="text/css">
	.st0{display:none;}
	.st1{display:inline;fill:#0C84D9;}
	.st2{display:inline;}
	.st3{fill:#0C84D9;}
	.st4{fill:#999999;}
	.st5{display:inline;fill-rule:evenodd;clip-rule:evenodd;fill:#999999;}
	.st6{clip-path:url(#SVGID_2_);}
	.st7{clip-path:url(#SVGID_4_);}
	.st8{fill-rule:evenodd;clip-rule:evenodd;fill:none;}
	.st9{fill-rule:evenodd;clip-rule:evenodd;fill:#999999;}
	.st10{display:inline;fill-rule:evenodd;clip-rule:evenodd;fill:#0C84D9;}
	.st11{clip-path:url(#SVGID_6_);}
	.st12{clip-path:url(#SVGID_8_);fill:#FFFFFF;}
</style>
<g id="图层_2" class="st0">
	
		<image style="display:inline;overflow:visible;" width="750" height="1334" xlink:href="Shepherd APP 视觉更新2016.10 /Home_Shepherd2.png"  transform="matrix(1 0 0 1 272.2667 -1010.9366)">
	</image>
</g>
<g id="图层_1" class="st0">
	<path class="st1" d="M254.6,264.9l-21.3-21.3c-1.9-1.9-5.2-1.9-7.1,0l-21.3,21.3c-0.4,0.4-0.4,1,0,1.4s1,0.4,1.4,0l3.6-3.6v19.8
		c0,2.6,2.1,4.7,4.6,4.7h9.4v-14c0-1.6,0.9-2.9,2.1-2.9h7.8c1.2,0,2.1,1.3,2.1,2.9v14h9.4c2.6,0,4.6-2.1,4.6-4.7v-19.4l3.1,3.1
		c0.2,0.2,0.5,0.3,0.7,0.3c0.3,0,0.5-0.1,0.7-0.3C255,265.9,255,265.3,254.6,264.9z"/>
</g>
<g id="_x32__监视" class="st0">
	<g class="st2">
		<path class="st3" d="M247.1,246.1h-34.7c-2.9,0-5.3,2.4-5.3,5.3v21.2c0,2.9,2.4,5.3,5.3,5.3h0.1l10.8-14.5l5.5,4.5l7.8-7.8
			c-0.7-0.8-1.1-1.8-1.1-2.9c0-2.4,1.9-4.3,4.2-4.3c2.3,0,4.2,1.9,4.2,4.3c0,2.4-1.9,4.3-4.2,4.3c-0.5,0-1-0.1-1.5-0.3l-9.3,9.4
			l-5.3-4.3l-8.7,11.7h12.9v5.8h-8.8c-0.5,0-1,0.4-1,1c0,0.5,0.4,1,1,1h19.5c0.5,0,1-0.4,1-1c0-0.5-0.4-1-1-1h-8.7v-5.8h16.7h0.5
			c2.9,0,5.3-2.4,5.3-5.3v-21.2C252.4,248.5,250,246.1,247.1,246.1z"/>
		<ellipse class="st3" cx="239.7" cy="257.2" rx="2.3" ry="2.3"/>
	</g>
</g>
<g id="_x33_" class="st0">
	<g class="st2">
		<g>
			<path class="st4" d="M231.7,287.2h-4.1c-1.6,0-2.9-1.3-2.9-2.9v-2.8c-1.2-0.3-2.3-0.8-3.4-1.4l-2.3,2.3c-1.1,1.1-2.9,1.1-4,0
				l-3.4-3.4c-1.1-1.1-1.1-2.9,0-4l2.3-2.3c-0.6-1.1-1-2.2-1.3-3.3h-2.8c-1.6,0-2.9-1.3-2.9-2.9v-4.1c0-1.6,1.3-2.9,2.9-2.9h2.8
				c0.4-1.3,0.9-2.6,1.6-3.7l-1.9-1.9c-1.1-1.1-1.1-2.9,0-4l2.6-2.6c1.1-1.1,2.9-1.1,4,0l1.8,1.8c1.3-0.8,2.7-1.3,4.2-1.7V245
				c0-1.6,1.3-2.8,2.8-2.8h3.6c1.6,0,2.8,1.3,2.8,2.8v2.5c1.3,0.4,2.6,0.9,3.7,1.5l2.2-2.2c1.1-1.1,2.9-1.1,4,0l3.1,3.1
				c0.5,0.5,0.8,1.2,0.8,2c0,0.8-0.3,1.5-0.8,2l-2.2,2.2c0.6,1.1,1.1,2.4,1.5,3.6h2.8c1.6,0,2.9,1.3,2.9,2.9v4
				c0,1.6-1.3,2.9-2.9,2.9h-2.9c-0.4,1.3-0.9,2.5-1.6,3.7l1.9,1.9c1.1,1.1,1.1,2.9,0,4l-2.8,2.8c-0.5,0.5-1.3,0.8-2,0.8h0
				c-0.8,0-1.5-0.3-2-0.8l-1.9-1.9c-1.2,0.7-2.4,1.2-3.7,1.5v2.8C234.6,285.9,233.3,287.2,231.7,287.2z M221.3,278
				c0.2,0,0.3,0,0.5,0.1c1.3,0.8,2.7,1.4,4.2,1.7c0.4,0.1,0.7,0.5,0.7,0.9v3.6c0,0.5,0.4,1,1,1h4.1c0.5,0,1-0.4,1-1v-3.6
				c0-0.4,0.3-0.8,0.7-0.9c1.6-0.4,3.1-1,4.6-1.9c0.4-0.2,0.9-0.2,1.2,0.1l2.4,2.4c0.2,0.2,0.4,0.3,0.7,0.3l0,0
				c0.3,0,0.5-0.1,0.7-0.3l2.8-2.8c0.4-0.4,0.4-1,0-1.4l-2.4-2.4c-0.3-0.3-0.4-0.8-0.1-1.2c0.9-1.4,1.5-2.9,1.9-4.6
				c0.1-0.4,0.5-0.7,0.9-0.7h3.6c0.5,0,0.9-0.4,0.9-0.9v-4c0-0.5-0.4-0.9-0.9-0.9H246c-0.4,0-0.8-0.3-0.9-0.7
				c-0.4-1.6-1-3.1-1.8-4.4c-0.2-0.4-0.2-0.9,0.1-1.2l2.7-2.7c0.2-0.2,0.3-0.4,0.3-0.7c0-0.3-0.1-0.5-0.3-0.7l-3.1-3.1
				c-0.4-0.4-1-0.4-1.3,0l-2.7,2.7c-0.3,0.3-0.8,0.4-1.2,0.1c-1.4-0.8-3-1.5-4.6-1.8c-0.4-0.1-0.7-0.5-0.7-0.9V245
				c0-0.5-0.4-0.9-0.9-0.9H228c-0.5,0-0.9,0.4-0.9,0.9v3.3c0,0.4-0.3,0.8-0.7,0.9c-1.8,0.4-3.4,1.1-5,2.1c-0.4,0.2-0.9,0.2-1.2-0.1
				l-2.4-2.4c-0.4-0.4-1-0.4-1.3,0l-2.6,2.6c-0.4,0.4-0.4,1,0,1.3l2.4,2.4c0.3,0.3,0.4,0.8,0.1,1.2c-0.9,1.4-1.5,3-1.9,4.6
				c-0.1,0.4-0.5,0.7-0.9,0.7h-3.6c-0.5,0-1,0.4-1,1v4.1c0,0.5,0.4,1,1,1h3.6c0.4,0,0.8,0.3,0.9,0.7c0.3,1.5,0.9,2.9,1.7,4.2
				c0.2,0.4,0.2,0.8-0.2,1.1l-2.8,2.8c-0.4,0.4-0.4,1,0,1.3l3.4,3.4c0.4,0.4,1,0.4,1.3,0l2.8-2.8C220.8,278.1,221,278,221.3,278z"/>
		</g>
		<g>
			<path class="st4" d="M230.3,273.9c-0.5,0-1-0.4-1-1s0.4-1,1-1c3.7,0,6.7-3,6.7-6.7s-3-6.7-6.7-6.7s-6.7,3-6.7,6.7
				c0,0.5-0.4,1-1,1s-1-0.4-1-1c0-4.7,3.8-8.6,8.6-8.6s8.6,3.8,8.6,8.6C238.8,270.1,235,273.9,230.3,273.9z"/>
		</g>
	</g>
</g>
<g id="_x33__x5F_pressed" class="st0">
	<path class="st1" d="M249.6,259.7h-2.8c-0.4-1.3-0.8-2.5-1.5-3.6l2.2-2.2c0.5-0.5,0.8-1.3,0.8-2c0-0.8-0.3-1.5-0.8-2l-3.1-3.1
		c-1.1-1.1-2.9-1.1-4,0l-2.2,2.2c-1.2-0.6-2.4-1.1-3.7-1.5V245c0-1.6-1.3-2.8-2.8-2.8H228c-1.6,0-2.8,1.3-2.8,2.8v2.5
		c-1.5,0.4-2.9,1-4.2,1.7l-1.8-1.8c-1.1-1.1-2.9-1.1-4,0l-2.6,2.6c-1.1,1.1-1.1,2.9,0,4l1.9,1.9c-0.7,1.2-1.2,2.4-1.6,3.7h-2.8
		c-1.6,0-2.9,1.3-2.9,2.9v4.1c0,1.6,1.3,2.9,2.9,2.9h2.8c0.3,1.1,0.8,2.2,1.3,3.3l-2.3,2.3c-1.1,1.1-1.1,2.9,0,4l3.4,3.4
		c1.1,1.1,2.9,1.1,4,0l2.3-2.3c1.1,0.6,2.2,1,3.4,1.4v2.8c0,1.6,1.3,2.9,2.9,2.9h4.1c1.6,0,2.9-1.3,2.9-2.9v-2.8
		c1.3-0.4,2.5-0.9,3.7-1.5l1.9,1.9c0.5,0.5,1.3,0.8,2,0.8h0c0.8,0,1.5-0.3,2-0.8l2.8-2.8c1.1-1.1,1.1-2.9,0-4l-1.9-1.9
		c0.7-1.2,1.2-2.4,1.6-3.7h2.9c1.6,0,2.9-1.3,2.9-2.9v-4C252.4,261,251.1,259.7,249.6,259.7z M230.3,273.9c-0.5,0-1-0.4-1-1
		s0.4-1,1-1c3.7,0,6.7-3,6.7-6.7s-3-6.7-6.7-6.7s-6.7,3-6.7,6.7c0,0.5-0.4,1-1,1s-1-0.4-1-1c0-4.7,3.8-8.6,8.6-8.6s8.6,3.8,8.6,8.6
		S235,273.9,230.3,273.9z"/>
</g>
<g id="图层_6" class="st0">
	<path class="st5" d="M229.7,284.8c-5.9,0-11.8,0-17.7,0c-2.4,0-4-1.4-4.3-3.7c-0.1-1,0.2-1.9,0.7-2.8c5.2-9.2,10.3-18.4,15.5-27.6
		c0.7-1.3,1.5-2.6,2.2-3.9c0.8-1.4,2-2.2,3.6-2.2c1.6,0,2.8,0.7,3.6,2.2c5.9,10.5,11.8,21,17.7,31.5c1.3,2.2,0.8,4.5-1.1,5.9
		c-0.8,0.6-1.7,0.7-2.6,0.7C241.4,284.8,235.6,284.8,229.7,284.8 M246.9,282.7c0.5,0,1,0,1.5,0c1.2-0.2,1.8-1.3,1.2-2.4
		c-0.1-0.2-0.2-0.4-0.4-0.6c-6-10.6-11.9-21.2-17.9-31.8c-0.9-1.7-2.3-1.7-3.2,0c-6,10.6-12,21.2-18,31.9c-0.1,0.3-0.3,0.5-0.4,0.8
		c-0.3,0.9,0.1,1.8,0.9,2.1c0.4,0.1,0.8,0.1,1.2,0.1c5.9,0,11.9,0,17.8,0H246.9z"/>
	<g class="st2">
		<defs>
			<path id="SVGID_1_" d="M228,257.4c0-1,0.8-1.8,1.7-1.8c1,0,1.7,0.8,1.7,1.8v14.1c0,1-0.8,1.8-1.7,1.8c-1,0-1.7-0.8-1.7-1.8V257.4
				z"/>
		</defs>
		<use xlink:href="#SVGID_1_"  style="overflow:visible;fill-rule:evenodd;clip-rule:evenodd;fill:#999999;"/>
		<clipPath id="SVGID_2_">
			<use xlink:href="#SVGID_1_"  style="overflow:visible;"/>
		</clipPath>
		<g class="st6">
			<defs>
				<rect id="SVGID_3_" x="-442.5" y="-984" width="734.4" height="1306.2"/>
			</defs>
			<use xlink:href="#SVGID_3_"  style="overflow:visible;fill:#999999;"/>
			<clipPath id="SVGID_4_">
				<use xlink:href="#SVGID_3_"  style="overflow:visible;"/>
			</clipPath>
			<g class="st7">
				<path class="st4" d="M228,257.4c0-1,0.8-1.8,1.7-1.8c1,0,1.7,0.8,1.7,1.8v14.1c0,1-0.8,1.8-1.7,1.8c-1,0-1.7-0.8-1.7-1.8V257.4z
					"/>
			</g>
		</g>
	</g>
	<g class="st2">
		<path class="st8" d="M228,257.4c0-1,0.8-1.8,1.7-1.8c1,0,1.7,0.8,1.7,1.8v14.1c0,1-0.8,1.8-1.7,1.8c-1,0-1.7-0.8-1.7-1.8V257.4z"
			/>
	</g>
	<g class="st2">
		<path class="st9" d="M231.6,277.2c0,1.1-0.9,2-2,1.9c-1.1,0-1.9-0.9-1.9-2c0-1,0.9-1.9,1.9-1.9
			C230.7,275.2,231.6,276.1,231.6,277.2"/>
	</g>
</g>
<g id="图层_6_x5F_复制" class="st0">
	<path class="st10" d="M251.1,278.2c-5.9-10.5-11.8-21-17.7-31.5c-0.8-1.4-2-2.2-3.6-2.2c-1.6,0-2.8,0.8-3.6,2.2
		c-0.7,1.3-1.5,2.6-2.2,3.9c-5.2,9.2-10.3,18.4-15.5,27.6c-0.5,0.9-0.9,1.8-0.7,2.8c0.3,2.3,1.9,3.7,4.3,3.7c5.9,0,11.8,0,17.7,0
		c5.9,0,11.7,0,17.6,0c0.9,0,1.8-0.1,2.6-0.7C251.9,282.8,252.3,280.5,251.1,278.2z M228,257.4c0-1,0.8-1.8,1.7-1.8
		c1,0,1.7,0.8,1.7,1.8v14.1c0,1-0.8,1.8-1.7,1.8c-1,0-1.7-0.8-1.7-1.8V257.4z M229.6,279.1c-1.1,0-1.9-0.9-1.9-2
		c0-1,0.9-1.9,1.9-1.9c1.1,0,1.9,0.9,1.9,2C231.6,278.2,230.7,279.1,229.6,279.1z"/>
</g>
<g id="图层_8">
	<g>
		<defs>
			<path id="SVGID_5_" d="M286.4,260.4c0-0.1-0.1-0.1-0.1-0.1c-0.7-0.8-1.1-1.7-1.1-2.7c0-1.3,0-2.6,0-3.9c0.1-1.8,1.6-3.4,3.3-3.7
				c2.2-0.3,4.2,0.9,4.7,3.1c0.1,0.3,0.1,0.6,0.1,0.9c0,1.2,0,2.5,0,3.7c0,0.9-0.4,1.7-0.9,2.4c0,0-0.1,0.1-0.1,0.2
				c0.3,0.1,0.5,0.1,0.8,0.2c1.3,0.4,2.6,0.9,3.6,1.8c0.3,0.3,0.6,0.6,0.8,0.9c0.4,0.5,0.5,1.1,0.5,1.8c0,0.4-0.3,0.7-0.7,0.8
				c-0.7,0.2-1.3,0.5-2,0.7c-1.9,0.4-3.8,0.6-5.7,0.6c-2,0-4.1-0.1-6.1-0.6c-0.6-0.1-1.2-0.4-1.7-0.6c-0.6-0.3-0.8-0.6-0.8-1.3
				c0-0.9,0.5-1.5,1.1-2.1c1-0.9,2.1-1.4,3.3-1.8C285.8,260.5,286.1,260.5,286.4,260.4 M289.6,265.9c1.8,0,3.5-0.1,5.3-0.5
				c0.7-0.1,1.3-0.4,2-0.6c0.1,0,0.2-0.1,0.2-0.2c0-0.4-0.1-0.8-0.4-1.1c-0.2-0.2-0.4-0.4-0.6-0.6c-1.3-1-2.9-1.5-4.5-1.8
				c-0.2,0-0.3,0-0.5,0.1c-1.1,0.4-2.1,0.4-3.2,0c-0.1,0-0.3-0.1-0.4,0c-1.1,0.2-2.2,0.6-3.2,1.1c-0.6,0.3-1.2,0.7-1.6,1.2
				c-0.2,0.3-0.4,0.6-0.4,1c0,0.2,0.1,0.3,0.2,0.3c0.5,0.2,1,0.4,1.5,0.5C285.8,265.8,287.7,265.9,289.6,265.9 M292.4,255.8
				C292.4,255.8,292.4,255.8,292.4,255.8c0-0.5,0.1-1,0-1.5c0-0.4-0.1-0.9-0.3-1.3c-0.6-1.7-2.7-2.4-4.3-1.5c-1,0.6-1.5,1.6-1.5,2.7
				c0,1.1,0,2.2,0,3.3c0,0.4,0.1,0.8,0.2,1.2c0.5,1.5,2.2,2.3,3.7,1.8c1.2-0.4,1.9-1.3,2-2.5C292.4,257.2,292.4,256.5,292.4,255.8"
				/>
		</defs>
		<clipPath id="SVGID_6_">
			<use xlink:href="#SVGID_5_"  style="overflow:visible;"/>
		</clipPath>
		<g class="st11">
			<defs>
				<rect id="SVGID_7_" x="-56.9" y="216.9" width="375" height="667"/>
			</defs>
			<clipPath id="SVGID_8_">
				<use xlink:href="#SVGID_7_"  style="overflow:visible;"/>
			</clipPath>
			<rect x="276.1" y="244.9" class="st12" width="27" height="27"/>
		</g>
	</g>
</g>
</svg>
